<svg xmlns="http://www.w3.org/2000/svg" width="44.085" height="38.982" viewBox="0 0 44.085 38.982">
  <title>angel</title>
  <g>
    <path d="M24.365,14.175a4.944,4.944,0,0,1-5.709-.17L10.718,33.448s2.427,4.368,10.758,4.534c8.332-.166,10.759-4.534,10.759-4.534Z" fill="#7fd6d2"/>
    <g>
      <path d="M14.969,23.035,17.9,15.868C12.6,12.507,2.618,6.1,2.618,6.1s-3.825,4.993.29,7.98h0c-2.1,2.958-.1,5.133,1.9,6.225v0a3.156,3.156,0,0,0,.5,3.273c2.6,3.113,6.348,1.431,7.353.954A15.3,15.3,0,0,0,14.969,23.035Z" fill="#f9f9f9"/>
      <g>
        <path d="M2.618,6.1s-5.388,7.034,3.5,9.4" fill="none" stroke="#2e313f" stroke-linecap="round" stroke-linejoin="round" stroke-width="2"/>
        <path d="M7.2,21.1c-1.586,0-7.385-2.664-4.292-7.016" fill="none" stroke="#2e313f" stroke-linecap="round" stroke-linejoin="round" stroke-width="2"/>
      </g>
      <path d="M14.969,23.035,17.9,15.868C12.6,12.507,2.618,6.1,2.618,6.1s-3.825,4.993.29,7.98h0c-2.1,2.958-.1,5.133,1.9,6.225v0a3.156,3.156,0,0,0,.5,3.273c2.6,3.113,6.348,1.431,7.353.954A15.3,15.3,0,0,0,14.969,23.035Z" fill="none" stroke="#2e313f" stroke-linecap="round" stroke-linejoin="round" stroke-width="2"/>
    </g>
    <g>
      <path d="M41.177,14.08c4.114-2.987.29-7.98.29-7.98S30.248,13.3,25.29,16.438l2.159,5.288a24.536,24.536,0,0,0,3.972,2.807c1.005.477,4.749,2.159,7.353-.954a3.156,3.156,0,0,0,.505-3.273v0c2-1.092,4-3.267,1.9-6.225Z" fill="#f9f9f9"/>
      <g>
        <path d="M41.467,6.1s5.388,7.034-3.5,9.4" fill="none" stroke="#2e313f" stroke-linecap="round" stroke-linejoin="round" stroke-width="2"/>
        <path d="M36.888,21.1c1.586,0,7.385-2.664,4.292-7.016" fill="none" stroke="#2e313f" stroke-linecap="round" stroke-linejoin="round" stroke-width="2"/>
      </g>
      <path d="M41.177,14.08c4.114-2.987.29-7.98.29-7.98S30.248,13.3,25.29,16.438l2.159,5.288a24.536,24.536,0,0,0,3.972,2.807c1.005.477,4.749,2.159,7.353-.954a3.156,3.156,0,0,0,.505-3.273v0c2-1.092,4-3.267,1.9-6.225Z" fill="none" stroke="#2e313f" stroke-linecap="round" stroke-linejoin="round" stroke-width="2"/>
    </g>
    <line x1="17.939" y1="1" x2="25.306" y2="1" fill="none" stroke="#f7c06f" stroke-linecap="round" stroke-linejoin="round" stroke-width="2"/>
    <path d="M21.476,34.982c-5.737-.114-8.674-2.221-9.947-3.522l-.811,1.988s2.427,4.368,10.758,4.534c8.332-.166,10.759-4.534,10.759-4.534l-.812-1.988C30.15,32.761,27.214,34.868,21.476,34.982Z" opacity="0.1"/>
    <circle cx="21.623" cy="10" r="5" fill="#f7d5c4"/>
    <path d="M24.365,14.175a4.944,4.944,0,0,1-5.709-.17L10.718,33.448s2.427,4.368,10.758,4.534c8.332-.166,10.759-4.534,10.759-4.534Z" fill="none" stroke="#2e313f" stroke-linejoin="round" stroke-width="2"/>
    <circle cx="21.623" cy="10" r="5" fill="none" stroke="#2e313f" stroke-linejoin="round" stroke-width="2"/>
  </g>
</svg>
