<svg xmlns="http://www.w3.org/2000/svg" viewBox="0 0 37 44"><defs><style>.cls-1{fill:#ea4460;}.cls-2{fill:#db3a5d;}.cls-3{opacity:0.2;}.cls-4{fill:#7fd6d2;}.cls-5,.cls-6,.cls-7,.cls-8{fill:none;stroke-width:2px;}.cls-5{stroke:#fff;}.cls-5,.cls-6{stroke-linecap:round;}.cls-5,.cls-7{stroke-miterlimit:10;}.cls-6,.cls-7,.cls-8{stroke:#2e313f;}.cls-6,.cls-8{stroke-linejoin:round;}</style></defs><title>balloons</title><g id="Layer_2" data-name="Layer 2"><g id="Outlines"><circle class="cls-1" cx="12" cy="16" r="11"/><polygon class="cls-2" points="16 32 8 32 12 25 16 32"/><path class="cls-3" d="M13.41,5.1a13.46,13.46,0,0,0,5.88,19.12A11,11,0,0,0,13.41,5.1Z"/><polygon class="cls-4" points="29 28 21 28 25 21 29 28"/><circle class="cls-4" cx="25" cy="12" r="11"/><path class="cls-5" d="M31.8,10.31A7.24,7.24,0,0,1,32,12"/><path class="cls-5" d="M25,5a7,7,0,0,1,5.52,2.7"/><path class="cls-6" d="M12,32a9.66,9.66,0,0,1,0,8,8.16,8.16,0,0,0-.86,3"/><path class="cls-7" d="M14,12a10.93,10.93,0,0,1,2-6.25A10.85,10.85,0,0,0,12,5a11,11,0,1,0,9,17.25A11,11,0,0,1,14,12Z"/><path class="cls-6" d="M25,28a9.66,9.66,0,0,1,0,8,7.2,7.2,0,0,0,0,7"/><circle class="cls-7" cx="25" cy="12" r="11"/><path class="cls-8" d="M12,27a10,10,0,0,1-1.11-.06L8,32h8l-2.9-5.07A10,10,0,0,1,12,27Z"/><path class="cls-8" d="M25,23a10,10,0,0,1-1.11-.06L21,28h8l-2.89-5.06A10,10,0,0,1,25,23Z"/></g></g></svg>