<svg xmlns="http://www.w3.org/2000/svg" viewBox="0 0 23 44.5"><defs><style>.cls-1{fill:#ea4460;}.cls-2{opacity:0.2;}.cls-3{fill:#efece8;}.cls-4{fill:#b6def2;}.cls-5,.cls-6{fill:none;stroke:#2e313f;stroke-miterlimit:10;stroke-width:2px;}.cls-5{stroke-linecap:round;}</style></defs><title>bauble-2</title><g id="Layer_2" data-name="Layer 2"><g id="Outlines"><path class="cls-1" d="M15.46,11.65a5.39,5.39,0,0,1-1-3.15h-6c0,.23-.06,2.25-1,3.15C6.23,13,1,17.11,1,25.44A17.22,17.22,0,0,0,7.63,39a25.47,25.47,0,0,1,3.18,4.08.8.8,0,0,0,1.37,0A26.07,26.07,0,0,1,15.37,39,17.22,17.22,0,0,0,22,25.44C22,17.11,16.77,13,15.46,11.65Z"/><path class="cls-2" d="M15.37,36a26.07,26.07,0,0,0-3.19,4.08.8.8,0,0,1-1.37,0A25.47,25.47,0,0,0,7.63,36,17.33,17.33,0,0,1,1.06,23.93c0,.49-.06,1-.06,1.51A17.22,17.22,0,0,0,7.63,39a25.47,25.47,0,0,1,3.18,4.08.8.8,0,0,0,1.37,0A26.07,26.07,0,0,1,15.37,39,17.22,17.22,0,0,0,22,25.44c0-.52,0-1-.06-1.51A17.33,17.33,0,0,1,15.37,36Z"/><path class="cls-3" d="M9.5,4.5h4a1,1,0,0,1,1,1v3a0,0,0,0,1,0,0h-6a0,0,0,0,1,0,0v-3A1,1,0,0,1,9.5,4.5Z"/><path class="cls-4" d="M1.5,27.5c2.5,0,2.5-6,5-6s2.49,6,5,6,2.5-6,5-6,2.5,6,5,6a1.21,1.21,0,0,0,.38-.06,18.22,18.22,0,0,0,.12-2c0-8.33-5.23-12.47-6.54-13.79a5.39,5.39,0,0,1-1-3.15h-6c0,.23-.06,2.25-1,3.15C6.23,13,1,17.11,1,25.44a18.22,18.22,0,0,0,.12,2A1.51,1.51,0,0,0,1.5,27.5Z"/><path class="cls-5" d="M15.46,11.65a5.39,5.39,0,0,1-1-3.15h-6c0,.23-.06,2.25-1,3.15C6.23,13,1,17.11,1,25.44A17.22,17.22,0,0,0,7.63,39a25.47,25.47,0,0,1,3.18,4.08.8.8,0,0,0,1.37,0A26.07,26.07,0,0,1,15.37,39,17.22,17.22,0,0,0,22,25.44C22,17.11,16.77,13,15.46,11.65Z"/><line class="cls-5" x1="11.42" y1="1" x2="11.42" y2="4"/><path class="cls-6" d="M9.5,4.5h4a1,1,0,0,1,1,1v3a0,0,0,0,1,0,0h-6a0,0,0,0,1,0,0v-3A1,1,0,0,1,9.5,4.5Z"/><path class="cls-5" d="M1.5,27.5c2.5,0,2.5-6,5-6s2.49,6,5,6,2.5-6,5-6,2.5,6,5,6a1.21,1.21,0,0,0,.38-.06,18.22,18.22,0,0,0,.12-2c0-8.33-5.23-12.47-6.54-13.79a5.39,5.39,0,0,1-1-3.15h-6c0,.23-.06,2.25-1,3.15C6.23,13,1,17.11,1,25.44a18.22,18.22,0,0,0,.12,2A1.51,1.51,0,0,0,1.5,27.5Z"/></g></g></svg>