<svg xmlns="http://www.w3.org/2000/svg" viewBox="0 0 44 42"><defs><style>.cls-1{fill:#b6def2;}.cls-2{fill:#f7c06f;}.cls-3{fill:#ea4460;}.cls-4{fill:#efece8;}.cls-5{fill:#5da9d8;}.cls-6,.cls-7,.cls-8,.cls-9{fill:none;stroke:#2e313f;}.cls-6{stroke-linecap:round;}.cls-6,.cls-7,.cls-9{stroke-miterlimit:10;}.cls-6,.cls-7{stroke-width:2px;}.cls-8{stroke-linejoin:round;}</style></defs><title>baubles</title><g id="Layer_2" data-name="Layer 2"><g id="Outlines"><circle class="cls-1" cx="10" cy="20" r="9"/><path class="cls-2" d="M32,19a11,11,0,0,1,3,.42V17a1,1,0,0,0-1-1H30a1,1,0,0,0-1,1v2.42A11,11,0,0,1,32,19Z"/><path class="cls-2" d="M10,11a8.76,8.76,0,0,1,2,.23V9a1,1,0,0,0-1-1H9A1,1,0,0,0,8,9v2.23A8.76,8.76,0,0,1,10,11Z"/><circle class="cls-3" cx="32" cy="30" r="11"/><path class="cls-4" d="M42.78,28.15,41,26.78l-2.5,1.91L36,26.78l-2.2,1.68a.46.46,0,0,1-.6,0L31,26.78l-2.49,1.91L26,26.78l-2.5,1.91-2-1.56A11.19,11.19,0,0,0,21,30.32a11,11,0,0,0,.1,1.42L23,33.22l2.49-1.91L28,33.22l2.5-1.91L33,33.22l2.5-1.91L38,33.22l2.5-1.91L42.67,33A11,11,0,0,0,43,30.32,11.09,11.09,0,0,0,42.78,28.15Z"/><path class="cls-5" d="M1,20a9,9,0,0,0,.4,2.65H18.6a9,9,0,0,0,0-5.3H1.4A9,9,0,0,0,1,20Z"/><line class="cls-6" x1="10" y1="1" x2="10" y2="8"/><line class="cls-6" x1="32" y1="1" x2="32" y2="16"/><path class="cls-7" d="M32,19a11,11,0,0,1,3,.42V17a1,1,0,0,0-1-1H30a1,1,0,0,0-1,1v2.42A11,11,0,0,1,32,19Z"/><path class="cls-8" d="M42.78,28.15,41,26.78l-2.5,1.91L36,26.78l-2.2,1.68a.46.46,0,0,1-.6,0L31,26.78l-2.49,1.91L26,26.78l-2.5,1.91-2-1.56A11.19,11.19,0,0,0,21,30.32a11,11,0,0,0,.1,1.42L23,33.22l2.49-1.91L28,33.22l2.5-1.91L33,33.22l2.5-1.91L38,33.22l2.5-1.91L42.67,33A11,11,0,0,0,43,30.32,11.09,11.09,0,0,0,42.78,28.15Z"/><path class="cls-7" d="M10,11a8.76,8.76,0,0,1,2,.23V9a1,1,0,0,0-1-1H9A1,1,0,0,0,8,9v2.23A8.76,8.76,0,0,1,10,11Z"/><path class="cls-9" d="M1,20a9,9,0,0,0,.4,2.65H18.6a9,9,0,0,0,0-5.3H1.4A9,9,0,0,0,1,20Z"/><circle class="cls-7" cx="32" cy="30" r="11"/><circle class="cls-7" cx="10" cy="20" r="9"/></g></g></svg>