<svg xmlns="http://www.w3.org/2000/svg" viewBox="0 0 36 44"><defs><style>.cls-1{fill:#b6def2;}.cls-2{opacity:0.2;}.cls-3{fill:#f7c06f;}.cls-4{fill:#5da9d8;}.cls-5,.cls-6{fill:none;stroke:#2e313f;stroke-miterlimit:10;stroke-width:2px;}.cls-6{stroke-linecap:round;}</style></defs><title>bauble-3</title><g id="Layer_2" data-name="Layer 2"><g id="Outlines"><circle class="cls-1" cx="18.04" cy="26" r="17"/><path class="cls-2" d="M18,40A17,17,0,0,1,1.11,24.5c0,.5-.07,1-.07,1.5a17,17,0,0,0,34,0A14.91,14.91,0,0,0,35,24.5,17,17,0,0,1,18,40Z"/><path class="cls-3" d="M18,9a17,17,0,0,1,4,.49V4.92a.87.87,0,0,0-.8-.92h-6.4a.87.87,0,0,0-.8.92V9.49A17,17,0,0,1,18,9Z"/><path class="cls-4" d="M1,26a16.86,16.86,0,0,0,.75,5h32.5a17,17,0,0,0,0-10H1.79A16.86,16.86,0,0,0,1,26Z"/><circle class="cls-5" cx="18" cy="26" r="17"/><line class="cls-6" x1="18" y1="1" x2="18" y2="4"/><path class="cls-5" d="M18,9a17,17,0,0,1,4,.49V4.92A.87.87,0,0,0,21.2,4H14.8a.87.87,0,0,0-.8.92V9.49A17,17,0,0,1,18,9Z"/><path class="cls-5" d="M1,26a16.86,16.86,0,0,0,.75,5h32.5a17,17,0,0,0,0-10H1.75A16.86,16.86,0,0,0,1,26Z"/></g></g></svg>