<svg xmlns="http://www.w3.org/2000/svg" viewBox="0 0 44 41.05"><defs><style>.cls-1{fill:#f7c06f;}.cls-2,.cls-3,.cls-4{fill:none;stroke:#2e313f;}.cls-2{stroke-linecap:round;stroke-width:2px;}.cls-2,.cls-3{stroke-linejoin:round;}.cls-4{stroke-miterlimit:10;}</style></defs><title>bell</title><g id="Layer_2" data-name="Layer 2"><g id="Outlines"><path class="cls-1" d="M41.91,35c-1.11-1.32-5-4.45-6.13-6.35s-3.21-9.73-3.73-15.27S31.35,6.57,27.76,6a30.33,30.33,0,0,0-6.07-.46,30.43,30.43,0,0,0-6.06.58c-3.57.67-3.73,1.95-4.14,7.49S9.13,27.12,8.06,28.92s-4.92,5.13-6,6.47-2.17,2.22,1.3,3A117.83,117.83,0,0,0,22,40.05a118.5,118.5,0,0,0,18.64-2C44.12,37.18,43,36.32,41.91,35Z"/><path class="cls-2" d="M41.91,35c-1.11-1.32-5-4.45-6.13-6.35s-3.21-9.73-3.73-15.27S31.35,6.57,27.76,6a30.33,30.33,0,0,0-6.07-.46,30.43,30.43,0,0,0-6.06.58c-3.57.67-3.73,1.95-4.14,7.49S9.13,27.12,8.06,28.92s-4.92,5.13-6,6.47-2.17,2.22,1.3,3A117.83,117.83,0,0,0,22,40.05a118.5,118.5,0,0,0,18.64-2C44.12,37.18,43,36.32,41.91,35Z"/><circle class="cls-3" cx="22.04" cy="3" r="2.5"/><path class="cls-4" d="M36.89,30.51a143.44,143.44,0,0,1-14.82,1.21,143.6,143.6,0,0,1-15-.94"/><path class="cls-4" d="M3.57,34.35a151.07,151.07,0,0,0,18.5,1.37A151.85,151.85,0,0,0,40.46,34"/></g></g></svg>