<svg xmlns="http://www.w3.org/2000/svg" viewBox="0 0 34 44"><defs><style>.cls-1{fill:#9b7e6b;}.cls-2{fill:#e5e4e3;}.cls-3{fill:#f7c06f;}.cls-4,.cls-5{fill:none;stroke:#2e313f;stroke-miterlimit:10;}.cls-4{stroke-width:2px;}</style></defs><title>bible</title><g id="Layer_2" data-name="Layer 2"><g id="Outlines"><path class="cls-1" d="M5,1A4,4,0,0,0,1,5V39a4,4,0,0,1,4-4H33V1Z"/><path class="cls-2" d="M33,43H5a4,4,0,0,1-4-4H1a4,4,0,0,1,4-4H33Z"/><polygon class="cls-3" points="26 13 21 13 21 8 17 8 17 13 12 13 12 17 17 17 17 28 21 28 21 17 26 17 26 13"/><path class="cls-4" d="M5,1A4,4,0,0,0,1,5V39a4,4,0,0,1,4-4H33V1Z"/><path class="cls-4" d="M33,43H5a4,4,0,0,1-4-4H1a4,4,0,0,1,4-4H33Z"/><polygon class="cls-4" points="26 13 21 13 21 8 17 8 17 13 12 13 12 17 17 17 17 28 21 28 21 17 26 17 26 13"/><line class="cls-5" x1="5.5" y1="1" x2="5.5" y2="35"/></g></g></svg>