<svg xmlns="http://www.w3.org/2000/svg" width="44" height="29.14" viewBox="0 0 44 29.14">
  <title>bunting</title>
  <g>
    <path d="M1,1A103.2,103.2,0,0,0,43,1" fill="none" stroke="#2e313f" stroke-linecap="round" stroke-linejoin="round" stroke-width="2"/>
    <path d="M6.682,1.989C7.963,5.752,8.712,7.93,10.1,11.928c1.415-3.661,2.168-5.621,3.505-9.13C11.317,2.606,9.014,2.338,6.682,1.989Z" fill="#ea4460"/>
    <path d="M18.207,3.078v9.631c1.516-1.385,2.275-2.095,3.793-3.551,1.518,1.456,2.277,2.166,3.794,3.551V3.078C23.262,3.175,20.738,3.175,18.207,3.078Z" fill="#7fd6d2"/>
    <path d="M30.938,2.749c1.335,3.495,2.087,5.449,3.5,9.1,1.385-4,2.133-6.182,3.408-9.938C35.518,2.269,33.22,2.545,30.938,2.749Z" fill="#ea4460"/>
    <path d="M1,16.352a103.2,103.2,0,0,0,42,0" fill="none" stroke="#2e313f" stroke-linecap="round" stroke-linejoin="round" stroke-width="2"/>
    <path d="M30.663,18.126v9.555c1.513-1.615,2.268-2.44,3.775-4.125,1.508,1.223,2.26,1.817,3.76,2.97V17.2C35.656,17.6,33.15,17.91,30.663,18.126Z" fill="#7fd6d2"/>
    <path d="M18.456,18.44c1.355,3.741,2.112,5.813,3.544,9.7,1.432-3.887,2.189-5.959,3.544-9.7C23.179,18.525,20.821,18.525,18.456,18.44Z" fill="#ea4460"/>
    <path d="M6.338,17.292v9.34c1.5-1.163,2.254-1.762,3.762-3,1.508,1.676,2.264,2.5,3.777,4.1V18.175C11.388,17.972,8.881,17.68,6.338,17.292Z" fill="#7fd6d2"/>
    <path d="M6.682,1.989C7.963,5.752,8.712,7.93,10.1,11.928c1.415-3.661,2.168-5.621,3.505-9.13C11.317,2.606,9.014,2.338,6.682,1.989Z" fill="none" stroke="#2e313f" stroke-linecap="round" stroke-linejoin="round" stroke-width="2"/>
    <path d="M18.207,3.078v9.631c1.516-1.385,2.275-2.095,3.793-3.551,1.518,1.456,2.277,2.166,3.794,3.551V3.078C23.262,3.175,20.738,3.175,18.207,3.078Z" fill="none" stroke="#2e313f" stroke-linecap="round" stroke-linejoin="round" stroke-width="2"/>
    <path d="M30.938,2.749c1.335,3.495,2.087,5.449,3.5,9.1,1.385-4,2.133-6.182,3.408-9.938C35.518,2.269,33.22,2.545,30.938,2.749Z" fill="none" stroke="#2e313f" stroke-linecap="round" stroke-linejoin="round" stroke-width="2"/>
    <path d="M30.663,18.126v9.555c1.513-1.615,2.268-2.44,3.775-4.125,1.508,1.223,2.26,1.817,3.76,2.97V17.2C35.656,17.6,33.15,17.91,30.663,18.126Z" fill="none" stroke="#2e313f" stroke-linecap="round" stroke-linejoin="round" stroke-width="2"/>
    <path d="M18.456,18.44c1.355,3.741,2.112,5.813,3.544,9.7,1.432-3.887,2.189-5.959,3.544-9.7C23.179,18.525,20.821,18.525,18.456,18.44Z" fill="none" stroke="#2e313f" stroke-linecap="round" stroke-linejoin="round" stroke-width="2"/>
    <path d="M6.338,17.292v9.34c1.5-1.163,2.254-1.762,3.762-3,1.508,1.676,2.264,2.5,3.777,4.1V18.175C11.388,17.972,8.881,17.68,6.338,17.292Z" fill="none" stroke="#2e313f" stroke-linecap="round" stroke-linejoin="round" stroke-width="2"/>
  </g>
</svg>
