<svg xmlns="http://www.w3.org/2000/svg" viewBox="0 0 44 44"><defs><style>.cls-1{fill:#ea4460;}.cls-2{fill:#f9f9f9;}.cls-3{opacity:0.2;}.cls-4{fill:#d3d3d3;}.cls-5,.cls-6,.cls-7,.cls-8{fill:none;stroke:#2e313f;}.cls-5,.cls-8{stroke-miterlimit:10;}.cls-5,.cls-7,.cls-8{stroke-width:2px;}.cls-6,.cls-7{stroke-linejoin:round;}.cls-7,.cls-8{stroke-linecap:round;}</style></defs><title>calendar-25</title><g id="Layer_2" data-name="Layer 2"><g id="Outlines"><path class="cls-1" d="M41,4H3A2,2,0,0,0,1,6v8H43V6A2,2,0,0,0,41,4Z"/><path class="cls-2" d="M1,41a2,2,0,0,0,2,2H41a2,2,0,0,0,2-2V14H1Z"/><path class="cls-2" d="M35,43l8-8H37a2,2,0,0,0-2,2Z"/><rect class="cls-3" x="1" y="11" width="42" height="3"/><path class="cls-4" d="M35,43h6a2,2,0,0,0,2-2V35Z"/><path class="cls-5" d="M1,41a2,2,0,0,0,2,2H41a2,2,0,0,0,2-2V14H1Z"/><path class="cls-6" d="M35,43l8-8H37a2,2,0,0,0-2,2Z"/><path class="cls-5" d="M41,4H3A2,2,0,0,0,1,6v8H43V6A2,2,0,0,0,41,4Z"/><path class="cls-7" d="M12.56,23a3.76,3.76,0,0,1,3.58-2.56h0A3.7,3.7,0,0,1,20,24.29a4.21,4.21,0,0,1-1.28,2.5c-1.82,2.33-6.49,6.8-6.49,6.8h8.72"/><path class="cls-7" d="M23.6,31.56a4.44,4.44,0,1,0,1.25-6.09l.82-5.08h5.54"/><line class="cls-8" x1="9" y1="1" x2="9" y2="7"/><line class="cls-8" x1="35" y1="1" x2="35" y2="7"/></g></g></svg>