<svg xmlns="http://www.w3.org/2000/svg" viewBox="0 0 22 44"><defs><style>.cls-1{fill:#efece8;}.cls-2{fill:#ea4460;}.cls-3{opacity:0.2;}.cls-4,.cls-5{fill:none;stroke:#2e313f;}.cls-4{stroke-linejoin:round;stroke-width:2px;}.cls-5{stroke-miterlimit:10;}</style></defs><title>candy-cane</title><g id="Layer_2" data-name="Layer 2"><g id="Outlines"><path class="cls-1" d="M3.92,43a3,3,0,0,1-3-3V11a10,10,0,0,1,20,0v6a3,3,0,1,1-6,0V11a4,4,0,0,0-8,0V40A3,3,0,0,1,3.92,43Z"/><path class="cls-2" d="M10.92,7a4,4,0,0,1,2.49.89h0l4.25-4.26h0a10,10,0,0,0-5-2.47h0L.92,12.92v7.45l6-6V11A4,4,0,0,1,10.92,7Z"/><path class="cls-2" d="M20.53,8.23h0l-5.61,5.6V17a3,3,0,0,0,1.64,2.66l4.36-4.37V11A10.13,10.13,0,0,0,20.53,8.23Z"/><polygon class="cls-2" points="0.92 27.83 0.92 35.29 6.92 29.29 6.92 21.83 0.92 27.83"/><path class="cls-2" d="M1.69,42a3,3,0,0,0,5.23-2V36.75L1.69,42Z"/><g class="cls-3"><path d="M3.92,40a3,3,0,0,1-3-3v3a3,3,0,0,0,6,0V37A3,3,0,0,1,3.92,40Z"/><path d="M17.92,17a3,3,0,0,1-3-3v3a3,3,0,1,0,6,0V14A3,3,0,0,1,17.92,17Z"/></g><path class="cls-4" d="M4.56,43A3,3,0,0,1,1,40V11.32A10.22,10.22,0,0,1,9.49,1.11,10,10,0,0,1,21,11v5.85A3.09,3.09,0,0,1,18.56,20,3,3,0,0,1,15,17V11.16a4.1,4.1,0,0,0-3.16-4.07A4,4,0,0,0,7,11V39.85A3.09,3.09,0,0,1,4.56,43Z"/><line class="cls-5" x1="20.53" y1="8.23" x2="14.92" y2="13.83"/><line class="cls-5" x1="16.56" y1="19.66" x2="20.92" y2="15.29"/><line class="cls-5" x1="17.66" y1="3.63" x2="13.41" y2="7.89"/><line class="cls-5" x1="12.68" y1="1.16" x2="0.92" y2="12.92"/><line class="cls-5" x1="0.92" y1="20.37" x2="6.92" y2="14.37"/><line class="cls-5" x1="6.92" y1="29.29" x2="0.92" y2="35.29"/><line class="cls-5" x1="1.69" y1="41.98" x2="6.92" y2="36.75"/><line class="cls-5" x1="0.92" y1="27.83" x2="6.92" y2="21.83"/></g></g></svg>