<svg xmlns="http://www.w3.org/2000/svg" width="44" height="34.886" viewBox="0 0 44 34.886">
  <title>candy-canes</title>
  <g>
    <g>
      <path d="M10.982,33.678a2.94,2.94,0,0,1-1.369-4.314L24.8,5.743a10,10,0,0,1,12.4-3.913,9.806,9.806,0,0,1,4.242,14.241l-3.1,4.821A3.033,3.033,0,0,1,34.7,22.149a2.939,2.939,0,0,1-1.368-4.314l3.095-4.813a4.018,4.018,0,0,0-.45-5.029,3.923,3.923,0,0,0-6.057.663L14.633,32.421A3.034,3.034,0,0,1,10.982,33.678Z" fill="#f9f9f9"/>
      <path d="M33.327,17.835l1.717-2.671,7.478-1.624.044.081a9.708,9.708,0,0,1-1.119,2.45l-2.219,3.45-.117.045-5.883,1.278A2.935,2.935,0,0,1,33.327,17.835Z" fill="#ea4460"/>
      <path d="M24,6.993,39.8,3.56l.011-.01A9.75,9.75,0,0,1,42.65,8.217l-.05.02L36.883,9.479a3.66,3.66,0,0,0-.911-1.486,3.923,3.923,0,0,0-6.057.663l-1.747,2.717-.1.022-8.017,1.742Z" fill="#ea4460"/>
      <polygon points="16.098 19.28 24.115 17.539 20.164 23.682 12.147 25.424 16.098 19.28" fill="#ea4460"/>
      <path d="M9.186,31.157l7.027-1.527.073.025-1.653,2.571a3.037,3.037,0,0,1-3.651,1.257A2.929,2.929,0,0,1,9.186,31.157Z" fill="#ea4460"/>
      <g>
        <line x1="42.522" y1="13.54" x2="34.941" y2="15.187" fill="none" stroke="#2e313f" stroke-miterlimit="10"/>
        <line x1="33.203" y1="20.849" x2="39.111" y2="19.566" fill="none" stroke="#2e313f" stroke-miterlimit="10"/>
        <line x1="42.6" y1="8.237" x2="36.841" y2="9.488" fill="none" stroke="#2e313f" stroke-miterlimit="10"/>
        <line x1="39.8" y1="3.56" x2="23.896" y2="7.015" fill="none" stroke="#2e313f" stroke-miterlimit="10"/>
        <line x1="19.945" y1="13.159" x2="28.065" y2="11.395" fill="none" stroke="#2e313f" stroke-miterlimit="10"/>
        <line x1="20.164" y1="23.682" x2="12.044" y2="25.446" fill="none" stroke="#2e313f" stroke-miterlimit="10"/>
        <line x1="9.13" y1="31.365" x2="16.213" y2="29.826" fill="none" stroke="#2e313f" stroke-miterlimit="10"/>
        <line x1="15.995" y1="19.303" x2="24.115" y2="17.539" fill="none" stroke="#2e313f" stroke-miterlimit="10"/>
      </g>
      <polygon points="16.724 18.307 20.216 23.739 25.861 14.993 22.368 9.561 16.724 18.307" opacity="0.1"/>
      <path d="M10.982,33.678a2.94,2.94,0,0,1-1.369-4.314L24.8,5.743a10,10,0,0,1,12.4-3.913,9.806,9.806,0,0,1,4.242,14.241l-3.1,4.821A3.033,3.033,0,0,1,34.7,22.149a2.939,2.939,0,0,1-1.368-4.314l3.095-4.813a4.018,4.018,0,0,0-.45-5.029,3.923,3.923,0,0,0-6.057.663L14.633,32.421A3.034,3.034,0,0,1,10.982,33.678Z" fill="none" stroke="#2e313f" stroke-linejoin="round" stroke-width="2"/>
    </g>
    <g>
      <path d="M33.018,33.678a2.94,2.94,0,0,0,1.369-4.314L19.2,5.743A10,10,0,0,0,6.8,1.83,9.806,9.806,0,0,0,2.553,16.071l3.1,4.821a3.033,3.033,0,0,0,3.651,1.257,2.939,2.939,0,0,0,1.368-4.314L7.578,13.022a4.018,4.018,0,0,1,.45-5.029,3.923,3.923,0,0,1,6.057.663L29.367,32.421A3.034,3.034,0,0,0,33.018,33.678Z" fill="#f9f9f9"/>
      <path d="M10.673,17.835,8.956,15.164,1.478,13.54l-.044.081a9.708,9.708,0,0,0,1.119,2.45l2.219,3.45.117.045,5.883,1.278A2.935,2.935,0,0,0,10.673,17.835Z" fill="#ea4460"/>
      <path d="M20,6.993,4.2,3.56l-.011-.01A9.75,9.75,0,0,0,1.35,8.217l.05.02L7.117,9.479a3.66,3.66,0,0,1,.911-1.486,3.923,3.923,0,0,1,6.057.663l1.747,2.717.1.022,8.017,1.742Z" fill="#ea4460"/>
      <polygon points="27.902 19.28 19.885 17.539 23.836 23.682 31.853 25.424 27.902 19.28" fill="#ea4460"/>
      <path d="M34.814,31.157,27.787,29.63l-.073.025,1.653,2.571a3.037,3.037,0,0,0,3.651,1.257A2.929,2.929,0,0,0,34.814,31.157Z" fill="#ea4460"/>
      <path d="M33.018,33.678a2.94,2.94,0,0,0,1.369-4.314L19.2,5.743A10,10,0,0,0,6.8,1.83,9.806,9.806,0,0,0,2.553,16.071l3.1,4.821a3.033,3.033,0,0,0,3.651,1.257,2.939,2.939,0,0,0,1.368-4.314L7.578,13.022a4.018,4.018,0,0,1,.45-5.029,3.923,3.923,0,0,1,6.057.663L29.367,32.421A3.034,3.034,0,0,0,33.018,33.678Z" fill="none" stroke="#2e313f" stroke-linejoin="round" stroke-width="2"/>
      <g>
        <line x1="1.478" y1="13.54" x2="9.059" y2="15.187" fill="none" stroke="#2e313f" stroke-miterlimit="10"/>
        <line x1="10.797" y1="20.849" x2="4.889" y2="19.566" fill="none" stroke="#2e313f" stroke-miterlimit="10"/>
        <line x1="1.4" y1="8.237" x2="7.159" y2="9.488" fill="none" stroke="#2e313f" stroke-miterlimit="10"/>
        <line x1="4.2" y1="3.56" x2="20.104" y2="7.015" fill="none" stroke="#2e313f" stroke-miterlimit="10"/>
        <line x1="24.055" y1="13.159" x2="15.935" y2="11.395" fill="none" stroke="#2e313f" stroke-miterlimit="10"/>
        <line x1="23.836" y1="23.682" x2="31.956" y2="25.446" fill="none" stroke="#2e313f" stroke-miterlimit="10"/>
        <line x1="34.87" y1="31.365" x2="27.787" y2="29.826" fill="none" stroke="#2e313f" stroke-miterlimit="10"/>
        <line x1="28.005" y1="19.303" x2="19.885" y2="17.539" fill="none" stroke="#2e313f" stroke-miterlimit="10"/>
      </g>
    </g>
  </g>
</svg>
