<svg xmlns="http://www.w3.org/2000/svg" viewBox="0 0 32.85 44"><defs><style>.cls-1{fill:#72b795;}.cls-2{fill:#efece8;}.cls-3{fill:#aa8c77;}.cls-4{fill:#f7c06f;}.cls-5{fill:none;stroke:#2e313f;stroke-linejoin:round;stroke-width:2px;}</style></defs><title>champagne</title><g id="Layer_2" data-name="Layer 2"><g id="Outlines"><path class="cls-1" d="M11,10.73V3A2,2,0,0,0,9,1H8A2,2,0,0,0,6,3v7.73a9.74,9.74,0,0,1-1.56,5.35C2.36,19.27,1,26.28,1,29V41a2,2,0,0,0,2,2H14a2,2,0,0,0,2-2V29c0-2.72-1.36-9.73-3.44-12.92A9.74,9.74,0,0,1,11,10.73Z"/><path class="cls-2" d="M16,39V29c0-.29,0-.63-.05-1H1.05c0,.37-.05.71-.05,1V39Z"/><path class="cls-3" d="M11,3A2,2,0,0,0,9,1H8A2,2,0,0,0,6,3v7.73A10.16,10.16,0,0,1,5.45,14l.06,0h6l0,0A10,10,0,0,1,11,10.73Z"/><path class="cls-4" d="M22.58,19l-.43,8.15a4.85,4.85,0,0,0,9.7,0L31.42,19Z"/><line class="cls-5" x1="27" y1="31.88" x2="27" y2="43"/><line class="cls-5" x1="22" y1="43" x2="32" y2="43"/><path class="cls-5" d="M27,32h0a4.85,4.85,0,0,1-4.85-4.85L22.85,14h8.3l.7,13.15A4.85,4.85,0,0,1,27,32Z"/><path class="cls-5" d="M11,10.73V3A2,2,0,0,0,9,1H8A2,2,0,0,0,6,3v7.73a9.74,9.74,0,0,1-1.56,5.35C2.36,19.27,1,26.28,1,29V41a2,2,0,0,0,2,2H14a2,2,0,0,0,2-2V29c0-2.72-1.36-9.73-3.44-12.92A9.74,9.74,0,0,1,11,10.73Z"/><path class="cls-5" d="M16,39V29c0-.29,0-.63-.05-1H1.05c0,.37-.05.71-.05,1V39Z"/><path class="cls-5" d="M11,3A2,2,0,0,0,9,1H8A2,2,0,0,0,6,3v7.73A10.16,10.16,0,0,1,5.45,14l.06,0h6l0,0A10,10,0,0,1,11,10.73Z"/><path class="cls-5" d="M22.58,19l-.43,8.15a4.85,4.85,0,0,0,9.7,0L31.42,19Z"/></g></g></svg>