<svg xmlns="http://www.w3.org/2000/svg" width="37.727" height="44" viewBox="0 0 37.727 44">
  <title>champagne-glasses</title>
  <g>
    <path d="M20.517,8.5v0l1.492,9.457a5.579,5.579,0,1,0,10.915-2.315L30.446,6.4h-.011Z" fill="#f7c06f"/>
    <path d="M16.433,15.458l-9.978-1.8h0l-2.2,9.323a5.579,5.579,0,0,0,10.981,1.983l1.2-9.49Z" fill="#f7c06f"/>
    <line x1="8.775" y1="29.361" x2="6.49" y2="42.008" fill="none" stroke="#2e313f" stroke-linejoin="round" stroke-width="2"/>
    <line x1="1" y1="41.017" x2="11.98" y2="43" fill="none" stroke="#2e313f" stroke-linecap="round" stroke-linejoin="round" stroke-width="2"/>
    <path d="M8.757,29.459h0a5.579,5.579,0,0,1-4.5-6.481L7.735,8.217l9.411,1.7L15.239,24.961A5.579,5.579,0,0,1,8.757,29.459Z" fill="none" stroke="#2e313f" stroke-linejoin="round" stroke-width="2"/>
    <line x1="6.455" y1="13.656" x2="16.433" y2="15.458" fill="none" stroke="#2e313f" stroke-linejoin="round" stroke-width="2"/>
    <line x1="28.602" y1="22.166" x2="31.269" y2="34.738" fill="none" stroke="#2e313f" stroke-linejoin="round" stroke-width="2"/>
    <line x1="25.812" y1="35.895" x2="36.727" y2="33.58" fill="none" stroke="#2e313f" stroke-linecap="round" stroke-linejoin="round" stroke-width="2"/>
    <line x1="20.517" y1="8.503" x2="30.435" y2="6.399" fill="none" stroke="#2e313f" stroke-linejoin="round" stroke-width="2"/>
    <path d="M28.623,22.263h0a5.578,5.578,0,0,1-6.615-4.3L19.645,2.985,29,1l3.922,14.648A5.579,5.579,0,0,1,28.623,22.263Z" fill="none" stroke="#2e313f" stroke-linejoin="round" stroke-width="2"/>
  </g>
</svg>
