<svg xmlns="http://www.w3.org/2000/svg" width="44" height="34.358" viewBox="0 0 44 34.358">
  <title>christmas-lights</title>
  <g>
    <path d="M27.09,30.6c-1.353.528-6.2-2.08-7.646-5.773-1.112-2.85-.6-5.224.883-6.624a4.547,4.547,0,0,1,.585-.473,4.87,4.87,0,0,1,2.007-.783,4.622,4.622,0,0,1,.751-.049c2.037.029,4.023,1.426,5.136,4.277C30.247,24.865,28.442,30.069,27.09,30.6Z" fill="#7fd6d2"/>
    <path d="M42.615,19.707c-.959,1.09-6.466,1.006-9.444-1.611-2.3-2.02-2.932-4.364-2.262-6.288a4.571,4.571,0,0,1,.3-.689,4.872,4.872,0,0,1,.621-.889,4.921,4.921,0,0,1,.8-.73,4.586,4.586,0,0,1,.644-.388c1.822-.911,4.229-.584,6.527,1.436C42.783,13.165,43.573,18.617,42.615,19.707Z" fill="#5da9d8"/>
    <path d="M1,13.473c7.4,3.291,15.629,3.3,22.427-.731A22.9,22.9,0,0,0,33.117,1" fill="none" stroke="#2e313f" stroke-linecap="round" stroke-miterlimit="10" stroke-width="2"/>
    <line x1="10.159" y1="15.801" x2="9.863" y2="19.051" fill="none" stroke="#2e313f" stroke-miterlimit="10" stroke-width="2"/>
    <line x1="20.668" y1="14.129" x2="21.809" y2="17.248" fill="none" stroke="#2e313f" stroke-miterlimit="10" stroke-width="2"/>
    <line x1="29.181" y1="7.816" x2="31.832" y2="10.23" fill="none" stroke="#2e313f" stroke-miterlimit="10" stroke-width="2"/>
    <path d="M8.65,33.355c-1.446-.126-4.641-4.614-4.295-8.563.266-3.049,1.78-4.948,3.728-5.547a4.546,4.546,0,0,1,.733-.164,4.86,4.86,0,0,1,2.147.187,4.655,4.655,0,0,1,.694.289c1.814.929,2.975,3.062,2.709,6.11C14.02,29.617,10.1,33.482,8.65,33.355Z" fill="#ea4460"/>
    <path d="M10.166,22.554A4.518,4.518,0,0,1,11,26.893" fill="none" stroke="#fff" stroke-linecap="round" stroke-miterlimit="10" stroke-width="1.5"/>
    <path d="M23.538,20.244a4.518,4.518,0,0,1,2.673,3.518" fill="none" stroke="#fff" stroke-linecap="round" stroke-miterlimit="10" stroke-width="1.5"/>
    <path d="M34.789,12.1a4.519,4.519,0,0,1,4,1.878" fill="none" stroke="#fff" stroke-linecap="round" stroke-miterlimit="10" stroke-width="1.5"/>
    <path d="M27.09,30.6c-1.353.528-6.2-2.08-7.646-5.773-1.112-2.85-.6-5.224.883-6.624a4.547,4.547,0,0,1,.585-.473,4.87,4.87,0,0,1,2.007-.783,4.622,4.622,0,0,1,.751-.049c2.037.029,4.023,1.426,5.136,4.277C30.247,24.865,28.442,30.069,27.09,30.6Z" fill="none" stroke="#2e313f" stroke-miterlimit="10" stroke-width="2"/>
    <path d="M42.615,19.707c-.959,1.09-6.466,1.006-9.444-1.611-2.3-2.02-2.932-4.364-2.262-6.288a4.571,4.571,0,0,1,.3-.689,4.872,4.872,0,0,1,.621-.889,4.921,4.921,0,0,1,.8-.73,4.586,4.586,0,0,1,.644-.388c1.822-.911,4.229-.584,6.527,1.436C42.783,13.165,43.573,18.617,42.615,19.707Z" fill="none" stroke="#2e313f" stroke-miterlimit="10" stroke-width="2"/>
    <path d="M8.65,33.355c-1.446-.126-4.641-4.614-4.295-8.563.266-3.049,1.78-4.948,3.728-5.547a4.546,4.546,0,0,1,.733-.164,4.86,4.86,0,0,1,2.147.187,4.655,4.655,0,0,1,.694.289c1.814.929,2.975,3.062,2.709,6.11C14.02,29.617,10.1,33.482,8.65,33.355Z" fill="none" stroke="#2e313f" stroke-miterlimit="10" stroke-width="2"/>
  </g>
</svg>
