<svg xmlns="http://www.w3.org/2000/svg" viewBox="0 0 32.77 44"><defs><style>.cls-1{fill:#72b795;}.cls-2{fill:#9b7e6b;}.cls-3{opacity:0.2;}.cls-4{fill:none;stroke-linejoin:round;stroke-width:2px;}.cls-4,.cls-5,.cls-6,.cls-7,.cls-8{stroke:#2e313f;}.cls-5{fill:#f7c06f;}.cls-5,.cls-6,.cls-7,.cls-8{stroke-miterlimit:10;}.cls-6{fill:#e1f7ff;}.cls-7{fill:#db5877;}.cls-8{fill:#8dccca;}</style></defs><title>christmas-tree-2</title><g id="Layer_2" data-name="Layer 2"><g id="Outlines"><path class="cls-1" d="M16.38,1a49.54,49.54,0,0,1-8,10,11,11,0,0,0,8,3,11,11,0,0,0,8-3A50,50,0,0,1,16.38,1Z"/><path class="cls-1" d="M21.38,13a12.46,12.46,0,0,1-5,1,12.44,12.44,0,0,1-5-1,58.46,58.46,0,0,1-7,7.75s4,4.5,12,4.5,12-4.5,12-4.5A58.37,58.37,0,0,1,21.38,13Z"/><path class="cls-1" d="M24.5,23.46a18.5,18.5,0,0,1-8.12,1.79,18.49,18.49,0,0,1-8.11-1.79A68.89,68.89,0,0,1,1,31.23S6.13,37,16.38,37s15.39-5.77,15.39-5.77A68.89,68.89,0,0,1,24.5,23.46Z"/><path class="cls-2" d="M16.38,37a25,25,0,0,1-4-.32V43h8V36.68A24.84,24.84,0,0,1,16.38,37Z"/><path class="cls-3" d="M16.38,22.25A17.71,17.71,0,0,1,6.05,19.16c-.55.54-1.1,1.08-1.67,1.59,0,0,4,4.5,12,4.5s12-4.5,12-4.5c-.56-.51-1.11-1.05-1.66-1.59A17.72,17.72,0,0,1,16.38,22.25Z"/><path class="cls-3" d="M22.68,9.33A12.06,12.06,0,0,1,16.38,11a12,12,0,0,1-6.29-1.67C9.54,9.91,9,10.47,8.38,11a11,11,0,0,0,8,3,11,11,0,0,0,8-3C23.8,10.47,23.23,9.91,22.68,9.33Z"/><path class="cls-3" d="M16.38,34A22.51,22.51,0,0,1,2.64,29.67C2.1,30.2,1.56,30.73,1,31.23,1,31.23,6.13,37,16.38,37s15.39-5.77,15.39-5.77c-.56-.5-1.1-1-1.65-1.56A22.46,22.46,0,0,1,16.38,34Z"/><path class="cls-4" d="M16.38,37a25,25,0,0,1-4-.32V43h8V36.68A24.84,24.84,0,0,1,16.38,37Z"/><path class="cls-4" d="M21.38,13a12.46,12.46,0,0,1-5,1,12.44,12.44,0,0,1-5-1,58.46,58.46,0,0,1-7,7.75s4,4.5,12,4.5,12-4.5,12-4.5A58.37,58.37,0,0,1,21.38,13Z"/><path class="cls-4" d="M16.38,1a49.54,49.54,0,0,1-8,10,11,11,0,0,0,8,3,11,11,0,0,0,8-3A50,50,0,0,1,16.38,1Z"/><path class="cls-4" d="M24.5,23.46a18.5,18.5,0,0,1-8.12,1.79,18.49,18.49,0,0,1-8.11-1.79A68.89,68.89,0,0,1,1,31.23S6.13,37,16.38,37s15.39-5.77,15.39-5.77A68.89,68.89,0,0,1,24.5,23.46Z"/><circle class="cls-5" cx="17.88" cy="31.5" r="2"/><circle class="cls-6" cx="5.88" cy="27.5" r="2"/><circle class="cls-7" cx="22.88" cy="23.5" r="2"/><circle class="cls-5" cx="12.88" cy="18.5" r="2"/><circle class="cls-8" cx="16.88" cy="8.5" r="2"/></g></g></svg>