<svg xmlns="http://www.w3.org/2000/svg" viewBox="0 0 44.32 43.11"><defs><style>.cls-1{fill:#7fd6d2;}.cls-2{opacity:0.2;}.cls-3,.cls-5,.cls-6,.cls-7{fill:none;stroke-miterlimit:10;stroke-width:2px;}.cls-3{stroke:#e0b175;}.cls-3,.cls-5,.cls-7{stroke-linecap:round;}.cls-4{fill:#efece8;}.cls-5{stroke:#fff;}.cls-6,.cls-7{stroke:#2e313f;}</style></defs><title>christmas-light</title><g id="Layer_2" data-name="Layer 2"><g id="Outlines"><path class="cls-1" d="M22.14,36c-3.17,0-11-9.18-11-17.85,0-6.7,2.94-11.13,7.08-12.81a9.15,9.15,0,0,1,1.56-.5,10.45,10.45,0,0,1,4.72,0,9.56,9.56,0,0,1,1.57.5c4.13,1.68,7.07,6.11,7.07,12.81C33.14,26.85,25.32,36,22.14,36Z"/><path class="cls-2" d="M22.14,33c-3,0-10.2-8.27-10.92-16.53-.05.54-.08,1.1-.08,1.68C11.14,26.85,19,36,22.14,36s11-9.18,11-17.85c0-.58,0-1.14-.07-1.68C32.35,24.76,25.16,33,22.14,33Z"/><line class="cls-3" x1="1" y1="22" x2="5" y2="22"/><line class="cls-3" x1="5.04" y1="34.43" x2="8.27" y2="32.08"/><line class="cls-3" x1="15.61" y1="42.11" x2="16.85" y2="38.3"/><line class="cls-3" x1="28.68" y1="42.11" x2="27.44" y2="38.3"/><line class="cls-3" x1="39.25" y1="34.43" x2="36.01" y2="32.08"/><line class="cls-3" x1="43.29" y1="22" x2="39.29" y2="22"/><path class="cls-4" d="M19.78,4.87a10.45,10.45,0,0,1,4.72,0L25,5V1.92A.87.87,0,0,0,24.2,1H19.8a.87.87,0,0,0-.8.92V5.08Q19.39,5,19.78,4.87Z"/><path class="cls-5" d="M28.87,18.5c-.57-7.87-4.84-9.08-5-9.13"/><path class="cls-6" d="M22.18,36c-3.18,0-11-9.18-11-17.85,0-6.7,2.94-11.13,7.07-12.81a9.56,9.56,0,0,1,1.57-.5,10.45,10.45,0,0,1,4.72,0,9.56,9.56,0,0,1,1.57.5c4.13,1.68,7.07,6.11,7.07,12.81C33.18,26.85,25.36,36,22.18,36Z"/><line class="cls-7" x1="1.04" y1="22" x2="5.04" y2="22"/><line class="cls-7" x1="5.08" y1="34.43" x2="8.31" y2="32.08"/><line class="cls-7" x1="15.65" y1="42.11" x2="16.88" y2="38.3"/><line class="cls-7" x1="28.72" y1="42.11" x2="27.48" y2="38.3"/><line class="cls-7" x1="39.29" y1="34.43" x2="36.05" y2="32.08"/><line class="cls-7" x1="43.32" y1="22" x2="39.32" y2="22"/><path class="cls-6" d="M19.82,4.87a10.45,10.45,0,0,1,4.72,0L25,5V1.92a.87.87,0,0,0-.8-.92h-4.4a.87.87,0,0,0-.8.92V5.08Q19.43,5,19.82,4.87Z"/></g></g></svg>