<svg xmlns="http://www.w3.org/2000/svg" viewBox="0 0 36 44"><defs><style>.cls-1{fill:#72b795;}.cls-1,.cls-3,.cls-5{fill-rule:evenodd;}.cls-2{opacity:0.2;}.cls-4{fill:#9b7e6b;}.cls-5,.cls-6,.cls-7{fill:none;stroke:#2e313f;stroke-linecap:round;stroke-linejoin:round;}.cls-5,.cls-6{stroke-width:2px;}</style></defs><title>christmas-tree-1</title><g id="Layer_2" data-name="Layer 2"><g id="Outlines"><polygon class="cls-1" points="18 1 10.75 11.77 14.65 11.77 4.58 24.39 10.46 24.39 1 37 35 37 25.54 24.39 31.42 24.39 21.35 11.77 25.54 11.77 18 1"/><g class="cls-2"><polygon class="cls-3" points="3.25 34 1 37 35 37 32.75 34 3.25 34"/></g><rect class="cls-4" x="13" y="37" width="8" height="6"/><polygon class="cls-5" points="18 1 10.75 11.77 14.65 11.77 4.58 24.39 10.46 24.39 1 37 35 37 25.54 24.39 31.42 24.39 21.35 11.77 25.54 11.77 18 1"/><rect class="cls-6" x="13" y="37" width="8" height="6"/><line class="cls-7" x1="16.5" y1="40" x2="16.5" y2="43"/><line class="cls-7" x1="18.5" y1="40" x2="18.5" y2="43"/></g></g></svg>