<svg xmlns="http://www.w3.org/2000/svg" viewBox="0 0 37 43.79"><defs><style>.cls-1{fill:#b5856b;}.cls-2{opacity:0.2;}.cls-3{fill:#efece8;}.cls-4{fill:#72b795;}.cls-5{fill:#ea4460;}.cls-6,.cls-7{fill:none;stroke:#2e313f;stroke-linejoin:round;stroke-width:2px;}.cls-7{stroke-linecap:round;}</style></defs><title>christmas-pudding</title><g id="Layer_2" data-name="Layer 2"><g id="Outlines"><circle class="cls-1" cx="18.5" cy="25.29" r="17.5"/><path class="cls-2" d="M18.5,39.79a17.49,17.49,0,0,1-17.42-16A14.76,14.76,0,0,0,1,25.29a17.5,17.5,0,0,0,35,0,14.76,14.76,0,0,0-.08-1.5A17.49,17.49,0,0,1,18.5,39.79Z"/><path class="cls-3" d="M6.14,28.37c3.09,0,3.09-6.17,6.18-6.17s3.08,6.17,6.17,6.17,3.09-6.17,6.18-6.17,3.09,6.17,6.18,6.17c2.6,0,3-4.36,4.93-5.74a17.48,17.48,0,0,0-34.56,0C3.13,24,3.55,28.37,6.14,28.37Z"/><path class="cls-4" d="M28.28,6.91l2.46,1a14.76,14.76,0,0,1,3.07-4.1A15,15,0,0,1,29.51,1l-2,1.77s-.62.82-3.08-.16A10.19,10.19,0,0,1,22,5.89a10.19,10.19,0,0,1,3.44,2.23C27.41,6.35,28.28,6.91,28.28,6.91Z"/><path class="cls-4" d="M8.72,6.91l-2.46,1a14.76,14.76,0,0,0-3.07-4.1A15,15,0,0,0,7.49,1l2,1.77s.62.82,3.08-.16A10.19,10.19,0,0,0,15,5.89a10.19,10.19,0,0,0-3.44,2.23C9.59,6.35,8.72,6.91,8.72,6.91Z"/><circle class="cls-5" cx="16" cy="8.29" r="2.5"/><circle class="cls-5" cx="18.5" cy="3.79" r="2.5"/><circle class="cls-5" cx="21" cy="8.29" r="2.5"/><path class="cls-6" d="M23.48,8.51a2.49,2.49,0,0,1-5-.22,2.49,2.49,0,0,1-5,.22,17.5,17.5,0,1,0,10,0Z"/><path class="cls-6" d="M23.48,8.52a2.5,2.5,0,0,1-5-.23,2.5,2.5,0,0,1-5,.23A17.51,17.51,0,0,0,1.22,22.63C3.13,24,3.55,28.37,6.14,28.37c3.09,0,3.09-6.17,6.18-6.17s3.08,6.17,6.17,6.17,3.09-6.17,6.18-6.17,3.09,6.17,6.18,6.17c2.6,0,3-4.36,4.93-5.74A17.51,17.51,0,0,0,23.48,8.52Z"/><path class="cls-7" d="M28.28,6.91l2.46,1a14.76,14.76,0,0,1,3.07-4.1A15,15,0,0,1,29.51,1l-2,1.77s-.62.82-3.08-.16A10.19,10.19,0,0,1,22,5.89a10.19,10.19,0,0,1,3.44,2.23C27.41,6.35,28.28,6.91,28.28,6.91Z"/><path class="cls-7" d="M8.72,6.91l-2.46,1a14.76,14.76,0,0,0-3.07-4.1A15,15,0,0,0,7.49,1l2,1.77s.62.82,3.08-.16A10.19,10.19,0,0,0,15,5.89a10.19,10.19,0,0,0-3.44,2.23C9.59,6.35,8.72,6.91,8.72,6.91Z"/><circle class="cls-7" cx="16" cy="8.29" r="2.5"/><circle class="cls-7" cx="18.5" cy="3.79" r="2.5"/><circle class="cls-7" cx="21" cy="8.29" r="2.5"/></g></g></svg>