<svg xmlns="http://www.w3.org/2000/svg" viewBox="0 0 43.01 43.01"><defs><style>.cls-1{fill:#5da9d8;}.cls-1,.cls-2,.cls-4{fill-rule:evenodd;}.cls-2{fill:#ea4460;}.cls-3{fill:#c464d8;}.cls-4,.cls-5{fill:none;stroke:#2e313f;stroke-linejoin:round;stroke-width:2px;}</style></defs><title>cracker</title><g id="Layer_2" data-name="Layer 2"><g id="Outlines"><polygon class="cls-1" points="16.56 32.11 15.85 35.65 9.48 42.01 1 33.53 7.36 27.16 10.9 26.46 16.56 32.11"/><polygon class="cls-1" points="16.56 32.11 20.09 31.41 31.41 20.09 32.11 16.56 26.46 10.9 22.92 11.61 11.61 22.92 10.9 26.46 16.56 32.11"/><polygon class="cls-1" points="32.11 16.56 35.65 15.85 42.01 9.48 33.53 1 27.16 7.36 26.46 10.9 32.11 16.56"/><polygon class="cls-2" points="16.56 32.11 15.85 35.65 13.02 38.48 12.31 34.94 8.78 34.23 8.07 30.7 4.54 29.99 7.36 27.16 10.9 26.46 16.56 32.11"/><polygon class="cls-2" points="32.11 16.56 35.65 15.85 38.48 13.02 34.94 12.31 34.23 8.78 30.7 8.07 29.99 4.54 27.16 7.36 26.46 10.9 32.11 16.56"/><rect class="cls-3" x="16.47" y="19.04" width="3" height="12" transform="translate(-12.44 20.04) rotate(-45)"/><rect class="cls-3" x="23.54" y="11.97" width="3" height="12" transform="translate(-5.37 22.97) rotate(-45)"/><polygon class="cls-4" points="16.56 32.11 15.85 35.65 9.48 42.01 1 33.53 7.36 27.16 10.9 26.46 16.56 32.11"/><polygon class="cls-4" points="16.56 32.11 20.09 31.41 31.41 20.09 32.11 16.56 26.46 10.9 22.92 11.61 11.61 22.92 10.9 26.46 16.56 32.11"/><polygon class="cls-4" points="32.11 16.56 35.65 15.85 42.01 9.48 33.53 1 27.16 7.36 26.46 10.9 32.11 16.56"/><polygon class="cls-4" points="16.56 32.11 15.85 35.65 13.02 38.48 12.31 34.94 8.78 34.23 8.07 30.7 4.54 29.99 7.36 27.16 10.9 26.46 16.56 32.11"/><polygon class="cls-4" points="32.11 16.56 35.65 15.85 38.48 13.02 34.94 12.31 34.23 8.78 30.7 8.07 29.99 4.54 27.16 7.36 26.46 10.9 32.11 16.56"/><rect class="cls-5" x="16.47" y="19.04" width="3" height="12" transform="translate(-12.44 20.04) rotate(-45)"/><rect class="cls-5" x="23.54" y="11.97" width="3" height="12" transform="translate(-5.37 22.97) rotate(-45)"/></g></g></svg>