<svg xmlns="http://www.w3.org/2000/svg" width="40" height="43" viewBox="0 0 40 43">
  <title>disco-ball</title>
  <g>
    <g>
      <circle cx="19.855" cy="25.709" r="16.291" fill="#b6def2"/>
      <g>
        <line x1="19.855" y1="14.135" x2="19.855" y2="37.283" fill="none" stroke="#2e313f" stroke-linecap="round" stroke-linejoin="round" stroke-width="2"/>
        <path d="M14.594,14.135a34.723,34.723,0,0,0-2.1,11.574,34.723,34.723,0,0,0,2.1,11.574" fill="none" stroke="#2e313f" stroke-linecap="round" stroke-linejoin="round" stroke-width="2"/>
        <path d="M25.115,37.283A34.723,34.723,0,0,0,27.22,25.709a34.723,34.723,0,0,0-2.105-11.574" fill="none" stroke="#2e313f" stroke-linecap="round" stroke-linejoin="round" stroke-width="2"/>
        <line x1="31.429" y1="25.709" x2="8.28" y2="25.709" fill="none" stroke="#2e313f" stroke-linecap="round" stroke-linejoin="round" stroke-width="2"/>
        <line x1="31.429" y1="25.709" x2="8.28" y2="25.709" fill="none" stroke="#2e313f" stroke-linecap="round" stroke-linejoin="round" stroke-width="2"/>
        <line x1="32.355" y1="25.709" x2="7.355" y2="25.709" fill="none" stroke="#2e313f" stroke-linecap="round" stroke-linejoin="round" stroke-width="2"/>
        <path d="M31.429,20.448a34.737,34.737,0,0,0-11.574-2.1,34.739,34.739,0,0,0-11.575,2.1" fill="none" stroke="#2e313f" stroke-linecap="round" stroke-linejoin="round" stroke-width="2"/>
        <path d="M8.28,30.97a34.739,34.739,0,0,0,11.575,2.1,34.737,34.737,0,0,0,11.574-2.1" fill="none" stroke="#2e313f" stroke-linecap="round" stroke-linejoin="round" stroke-width="2"/>
        <line x1="19.855" y1="38.209" x2="19.855" y2="13.209" fill="none" stroke="#2e313f" stroke-linecap="round" stroke-linejoin="round" stroke-width="2"/>
      </g>
      <line x1="19.855" y1="6.319" x2="19.855" fill="none" stroke="#2e313f" stroke-linejoin="round" stroke-width="2"/>
      <path d="M19.855,9.418a16.355,16.355,0,0,1,3.095.3,3.286,3.286,0,0,0-3.095-3.4,3.287,3.287,0,0,0-3.1,3.4A16.357,16.357,0,0,1,19.855,9.418Z" fill="#b6def2"/>
      <circle cx="19.855" cy="25.709" r="16.291" fill="none" stroke="#2e313f" stroke-linecap="round" stroke-linejoin="round" stroke-width="2"/>
      <path d="M19.855,9.418a16.355,16.355,0,0,1,3.095.3,3.286,3.286,0,0,0-3.095-3.4,3.287,3.287,0,0,0-3.1,3.4A16.357,16.357,0,0,1,19.855,9.418Z" opacity="0.2"/>
      <path d="M19.855,9.418a16.355,16.355,0,0,1,3.095.3,3.286,3.286,0,0,0-3.095-3.4,3.287,3.287,0,0,0-3.1,3.4A16.357,16.357,0,0,1,19.855,9.418Z" fill="none" stroke="#2e313f" stroke-linecap="round" stroke-linejoin="round" stroke-width="2"/>
    </g>
    <g>
      <line x1="32.5" y1="5" x2="32.5" y2="10" fill="none" stroke="#2e313f" stroke-linecap="round" stroke-linejoin="round" stroke-width="2"/>
      <line x1="35" y1="7.5" x2="30" y2="7.5" fill="none" stroke="#2e313f" stroke-linecap="round" stroke-linejoin="round" stroke-width="2"/>
    </g>
    <g>
      <line x1="37.5" y1="13" x2="37.5" y2="16" fill="none" stroke="#2e313f" stroke-linecap="round" stroke-linejoin="round" stroke-width="2"/>
      <line x1="39" y1="14.5" x2="36" y2="14.5" fill="none" stroke="#2e313f" stroke-linecap="round" stroke-linejoin="round" stroke-width="2"/>
    </g>
    <g>
      <line x1="3" y1="36" x2="3" y2="40" fill="none" stroke="#2e313f" stroke-linecap="round" stroke-linejoin="round" stroke-width="2"/>
      <line x1="5" y1="38" x2="1" y2="38" fill="none" stroke="#2e313f" stroke-linecap="round" stroke-linejoin="round" stroke-width="2"/>
    </g>
  </g>
</svg>
