<svg xmlns="http://www.w3.org/2000/svg" viewBox="0 0 23.8 44"><defs><style>.cls-1{fill:#6d533f;}.cls-2{fill:#aa8c77;}.cls-3{fill:#9b7e6b;}.cls-4{fill:#efece8;}.cls-5,.cls-6{fill:none;stroke:#2e313f;stroke-linejoin:round;}.cls-5{stroke-width:2px;}</style></defs><title>dreidel</title><g id="Layer_2" data-name="Layer 2"><g id="Outlines"><path class="cls-1" d="M11.86,43C8,43,1,36,1,29.93V13.05h21.8V29.93C22.76,36,15.71,43,11.86,43Z"/><path class="cls-2" d="M11.84,13.05H1V28.67c0,3,3.27,5.44,5.44,5.44s5.44-2.44,5.44-5.44c0,3,3.28,5.44,5.46,5.44s5.46-2.44,5.46-5.44V13.05Z"/><path class="cls-1" d="M14,13H10V3a2,2,0,0,1,2-2h0a2,2,0,0,1,2,2Z"/><path class="cls-3" d="M11.84,13.05V28.67c0,3,3.28,5.44,5.46,5.44s5.46-2.44,5.46-5.44V13.05Z"/><path class="cls-4" d="M6.53,25.3c.32-.07.68.09,1-.11s.33-.67.49-1c.29-.65.54-1.32.81-2,.06-.14.11-.27,0-.37-.87-.59-.77-1.79-.47-2.73s.32-.86.81-.21a7.54,7.54,0,0,1,.53.73,2,2,0,0,1,0,2.1,9.26,9.26,0,0,0-1.18,2.68c-.15.61-.23,1.23-.33,1.84a1.81,1.81,0,0,1-1.28,1.68,5.05,5.05,0,0,1-2.7,0c-.27-.08-.41-.24-.46-.64-.1-.93-.33-1.82-.46-2.75a4.6,4.6,0,0,1,.23-2.45c.11-.27.12-.4-.1-.58a2,2,0,0,1-.53-2.14c.18-.88.19-.88.75-.37a6.78,6.78,0,0,1,1.06,1.08A2.07,2.07,0,0,1,4.84,22c-.07.19-.13.31-.33.19s-.39-.22-.55.38a3.77,3.77,0,0,0,0,1.21c0,.43.13.86.15,1.29,0,.24.08.33.28.34.49,0,.53,0,.73-.6.3-.91.67-1.77,1-2.64,0-.13.18-.26,0-.42a2.44,2.44,0,0,1-.36-2.25,6.63,6.63,0,0,1,.25-.9c0-.17.15-.29.27-.09.31.51.74.87,1,1.41a2.58,2.58,0,0,1,.08,2.25c-.08.22-.17.3-.37.18s-.34-.17-.52.25a21.79,21.79,0,0,0-.9,2.34c-.12.42-.12.42.22.41S6.3,25.3,6.53,25.3Z"/><path class="cls-4" d="M19.47,25.34a17.06,17.06,0,0,0-.14-3.29c-.08-.41-.21-.6-.58-.65a5,5,0,0,0-1.54,0,3.36,3.36,0,0,1-1.44-.16,1.23,1.23,0,0,1-.8-1.12,17.36,17.36,0,0,1,0-2c0-.15,0-.19.17-.12a3.13,3.13,0,0,0,2.1.3,11.71,11.71,0,0,1,2.29-.15,1.59,1.59,0,0,1,1.39,1.15,1.5,1.5,0,0,1-.3,1.54.87.87,0,0,0-.24.77c.08.69.16,1.37.23,2.06q.16,1.36.3,2.73a1.8,1.8,0,0,1-1.15,1.83c-.18.07-.26,0-.27-.28A19.91,19.91,0,0,1,19.47,25.34Z"/><path class="cls-4" d="M14.69,25.59c0-.66,0-1.32,0-2a1.06,1.06,0,0,1,.42-1c.22-.15.47-.54.62-.44s.1.61.11.93c0,1.16,0,2.32,0,3.48a1.22,1.22,0,0,1-.58,1.23c-.13.08-.26.15-.39.24s-.22,0-.22-.19C14.7,27.1,14.7,26.35,14.69,25.59Z"/><path class="cls-5" d="M11.9,43C8.05,43,1,36,1,29.93V13.05H22.8V29.93C22.8,36,15.75,43,11.9,43Z"/><path class="cls-6" d="M11.88,13.05H1V28.67c0,3,3.27,5.44,5.44,5.44s5.44-2.44,5.44-5.44c0,3,3.28,5.44,5.46,5.44s5.46-2.44,5.46-5.44V13.05Z"/><path class="cls-5" d="M11.88,13.05V43h0c3.85,0,10.9-7,10.9-13.07V13.05Z"/><path class="cls-5" d="M14,13H10V3a2,2,0,0,1,2-2h0a2,2,0,0,1,2,2Z"/></g></g></svg>