<svg xmlns="http://www.w3.org/2000/svg" viewBox="0 0 44 40"><defs><style>.cls-1{fill:#efece8;}.cls-2{opacity:0.2;}.cls-3{fill:#ea4460;}.cls-4{fill:#f7c06f;}.cls-5,.cls-6{fill:none;stroke:#2e313f;stroke-miterlimit:10;}.cls-5{stroke-width:2px;}</style></defs><title>drum</title><g id="Layer_2" data-name="Layer 2"><g id="Outlines"><rect class="cls-1" x="0.96" y="29" width="42" height="10" rx="1" ry="1"/><rect class="cls-1" x="0.96" y="1" width="42" height="10" rx="1" ry="1"/><path class="cls-2" d="M42,36H2a1,1,0,0,1-1-1v3a1,1,0,0,0,1,1H42a1,1,0,0,0,1-1V35A1,1,0,0,1,42,36Z"/><path class="cls-2" d="M42,8H2A1,1,0,0,1,1,7v3a1,1,0,0,0,1,1H42a1,1,0,0,0,1-1V7A1,1,0,0,1,42,8Z"/><rect class="cls-3" x="2.96" y="11" width="38" height="18"/><circle class="cls-4" cx="12.48" cy="15.91" r="2"/><path class="cls-4" d="M33.57,16a2,2,0,1,1-2-2A2,2,0,0,1,33.57,16Z"/><circle class="cls-4" cx="21.96" cy="24" r="2"/><rect class="cls-5" x="1" y="1" width="42" height="10" rx="1" ry="1"/><rect class="cls-5" x="1" y="29" width="42" height="10" rx="1" ry="1"/><rect class="cls-5" x="3" y="11" width="38" height="18"/><line class="cls-5" x1="3" y1="11" x2="12.52" y2="29"/><line class="cls-5" x1="22.04" y1="11" x2="12.52" y2="29"/><line class="cls-5" x1="22.04" y1="11" x2="31.56" y2="29"/><line class="cls-5" x1="41.08" y1="11" x2="31.56" y2="29"/><circle class="cls-6" cx="12.52" cy="15.91" r="2"/><circle class="cls-6" cx="31.61" cy="16" r="2"/><circle class="cls-6" cx="22" cy="24" r="2"/></g></g></svg>