<svg xmlns="http://www.w3.org/2000/svg" viewBox="0 0 44 36"><defs><style>.cls-1{fill:#aa8c77;}.cls-2{fill:#9b7e6b;}.cls-3{fill:#6d533f;}.cls-4{fill:#7fd6d2;}.cls-5{fill:#ea4460;}.cls-6{fill:#f7c06f;}.cls-7,.cls-8,.cls-9{fill:none;stroke:#2e313f;stroke-width:2px;}.cls-7,.cls-9{stroke-linejoin:round;}.cls-8{stroke-miterlimit:10;}.cls-9{stroke-linecap:round;}</style></defs><title>fireplace</title><g id="Layer_2" data-name="Layer 2"><g id="Outlines"><rect class="cls-1" x="1" y="1" width="42" height="6"/><polyline class="cls-2" points="2 9 1 7 43 7 41 11 3 11 2 9"/><rect class="cls-1" x="3" y="11" width="6" height="24"/><polyline class="cls-3" points="24.55 11 35 11 35 34 9 34 9 11 24.55 11"/><rect class="cls-1" x="35" y="11" width="6" height="24"/><path class="cls-4" d="M8.59,3.86a.86.86,0,0,0-.87.86c0,1.47,0,4.37,0,5.15,0,.93-.31,3.33,1,3.93,1.06.51,3.56,1.83,4.19,2.1a2.08,2.08,0,0,0,1.76-3.76,3,3,0,0,1-1.57-2.67c0-1.2,0-3.5,0-4.75a.85.85,0,0,0-.86-.86Z"/><path class="cls-5" d="M30.59,3.86a.86.86,0,0,0-.87.86c0,1.47.05,4.37,0,5.15,0,.93-.31,3.33.95,3.93,1.06.51,3.56,1.83,4.19,2.1a2.08,2.08,0,0,0,1.76-3.76,3,3,0,0,1-1.57-2.67c0-1.2,0-3.5,0-4.75a.85.85,0,0,0-.86-.86Z"/><path class="cls-6" d="M21.74,34a4.65,4.65,0,0,1-4.25-2.82,6.19,6.19,0,0,1,.32-5.4,15.36,15.36,0,0,0,1.7-3.51,4.73,4.73,0,0,1,.94,3.87A12.34,12.34,0,0,0,22.9,22a12.68,12.68,0,0,0,.35-4S27.41,25.06,27,28.79C26.55,32.24,24.14,34,21.74,34Z"/><path class="cls-7" d="M7.76,9.87c0-.46,0-1.66,0-2.87H1l2,4H7.72C7.73,10.55,7.75,10.15,7.76,9.87Z"/><path class="cls-7" d="M29.76,9.87c0-.46,0-1.66,0-2.87H13.06c0,.92,0,1.84,0,2.47A3.24,3.24,0,0,0,13.48,11H29.72C29.73,10.55,29.75,10.15,29.76,9.87Z"/><path class="cls-7" d="M35.06,7c0,.92,0,1.84,0,2.47A3.24,3.24,0,0,0,35.48,11H41l2-4Z"/><path class="cls-7" d="M8.71,13.8c-.89-.42-1-1.74-1-2.8H3V35H9V13.94Z"/><path class="cls-8" d="M8.59,3.86a.86.86,0,0,0-.87.86c0,1.47,0,4.37,0,5.15,0,.93-.31,3.33,1,3.93,1.06.51,3.56,1.83,4.19,2.1a2.08,2.08,0,0,0,1.76-3.76,3,3,0,0,1-1.57-2.67c0-1.2,0-3.5,0-4.75a.85.85,0,0,0-.86-.86Z"/><path class="cls-7" d="M1,1V7H7.75c0-.84,0-1.68,0-2.28a.86.86,0,0,1,.87-.86H12.2a.85.85,0,0,1,.86.86V7H29.75c0-.84,0-1.68,0-2.28a.86.86,0,0,1,.87-.86H34.2a.85.85,0,0,1,.86.86V7H43V1Z"/><path class="cls-9" d="M21.74,34a4.65,4.65,0,0,1-4.25-2.82,6.19,6.19,0,0,1,.32-5.4,15.36,15.36,0,0,0,1.7-3.51,4.73,4.73,0,0,1,.94,3.87A12.34,12.34,0,0,0,22.9,22a12.68,12.68,0,0,0,.35-4S27.41,25.06,27,28.79C26.55,32.24,24.14,34,21.74,34Z"/><path class="cls-7" d="M35.48,11a4.12,4.12,0,0,0,1.18,1.14A2.08,2.08,0,0,1,35,15.93V35h6V11Z"/><path class="cls-8" d="M30.59,3.86a.86.86,0,0,0-.87.86c0,1.47.05,4.37,0,5.15,0,.93-.31,3.33.95,3.93,1.06.51,3.56,1.83,4.19,2.1a2.08,2.08,0,0,0,1.76-3.76,3,3,0,0,1-1.57-2.67c0-1.2,0-3.5,0-4.75a.85.85,0,0,0-.86-.86Z"/><path class="cls-7" d="M34.9,15.9c-.63-.27-3.13-1.59-4.19-2.1-.89-.42-1-1.74-1-2.8H13.48a4.12,4.12,0,0,0,1.18,1.14A2.08,2.08,0,0,1,12.9,15.9c-.58-.25-2.74-1.38-3.9-2V34H35V15.93Z"/></g></g></svg>