<svg xmlns="http://www.w3.org/2000/svg" viewBox="0 0 40.4 43.71"><defs><style>.cls-1{fill:#f7c06f;}.cls-2{fill:#5da9d8;}.cls-3{fill:#ea4460;}.cls-4{fill:none;stroke:#2e313f;stroke-linejoin:round;stroke-width:2px;}</style></defs><title>firework</title><g id="Layer_2" data-name="Layer 2"><g id="Outlines"><path class="cls-1" d="M5.86,33.7c-1.1.36-4-.27-4.86-.72.44-.89,2.36-3.12,3.47-3.48a2.21,2.21,0,1,1,1.39,4.2Z"/><path class="cls-2" d="M15.47,4.57H29a0,0,0,0,1,0,0V29.72a2,2,0,0,1-2,2H17.47a2,2,0,0,1-2-2V4.57a0,0,0,0,1,0,0Z" transform="translate(19.35 -10.42) rotate(45)"/><polygon class="cls-2" points="39.4 1 25 1.69 38.72 15.4 39.4 1"/><polygon class="cls-3" points="30.49 19.52 18.14 12.66 22.26 8.54 34.6 15.4 30.49 19.52"/><polygon class="cls-3" points="22.26 27.75 9.91 20.89 14.03 16.77 26.37 23.63 22.26 27.75"/><path class="cls-4" d="M5.86,33.7c-1.1.36-4-.27-4.86-.72.44-.89,2.36-3.12,3.47-3.48a2.21,2.21,0,1,1,1.39,4.2Z"/><path class="cls-4" d="M15.47,4.57H29a0,0,0,0,1,0,0V29.72a2,2,0,0,1-2,2H17.47a2,2,0,0,1-2-2V4.57a0,0,0,0,1,0,0Z" transform="translate(19.35 -10.42) rotate(45)"/><polygon class="cls-4" points="39.4 1 25 1.69 38.72 15.4 39.4 1"/><polygon class="cls-4" points="30.49 19.52 18.14 12.66 22.26 8.54 34.6 15.4 30.49 19.52"/><polygon class="cls-4" points="22.26 27.75 9.91 20.89 14.03 16.77 26.37 23.63 22.26 27.75"/><line class="cls-4" x1="20" y1="30" x2="7" y2="43"/><path class="cls-4" d="M12.4,27.49A8.56,8.56,0,0,1,7,31"/></g></g></svg>