<svg xmlns="http://www.w3.org/2000/svg" viewBox="0 0 44.14 44.15"><defs><style>.cls-1{fill:#b6def2;}.cls-1,.cls-2{fill-rule:evenodd;}.cls-2,.cls-3{fill:none;stroke:#2e313f;stroke-miterlimit:10;stroke-width:2px;}</style></defs><title>gift-tag</title><g id="Layer_2" data-name="Layer 2"><g id="Outlines"><path class="cls-1" d="M42.57,24.19,20,1.58A2,2,0,0,0,18.56,1H3.15a2,2,0,0,0-2,2L1,18.55A2,2,0,0,0,1.58,20l22.6,22.6a2,2,0,0,0,2.8,0L42.57,27A2,2,0,0,0,42.57,24.19ZM10.44,13.46a3,3,0,1,1,3-3A3,3,0,0,1,10.44,13.46Z"/><path id="_Path_" data-name="&lt;Path&gt;" class="cls-2" d="M42.57,27,27,42.57a2,2,0,0,1-2.8,0L1.58,20A2,2,0,0,1,1,18.55L1.14,3a2,2,0,0,1,2-2H18.56a2,2,0,0,1,1.4.58L42.57,24.19A2,2,0,0,1,42.57,27Z"/><circle id="_Path_2" data-name="&lt;Path&gt;" class="cls-3" cx="10.44" cy="10.46" r="3"/><line class="cls-3" x1="25" y1="20.34" x2="25" y2="25.01"/><line class="cls-3" x1="22.67" y1="18.01" x2="25" y2="20.34"/><line class="cls-3" x1="27.33" y1="18.01" x2="25" y2="20.34"/><line class="cls-3" x1="20.96" y1="22.68" x2="25" y2="25.01"/><line class="cls-3" x1="17.77" y1="23.53" x2="20.96" y2="22.68"/><line class="cls-3" x1="20.1" y1="19.49" x2="20.96" y2="22.68"/><line class="cls-3" x1="20.96" y1="27.34" x2="25" y2="25.01"/><line class="cls-3" x1="20.1" y1="30.53" x2="20.96" y2="27.34"/><line class="cls-3" x1="17.77" y1="26.49" x2="20.96" y2="27.34"/><line class="cls-3" x1="25" y1="29.68" x2="25" y2="25.01"/><line class="cls-3" x1="27.33" y1="32.01" x2="25" y2="29.68"/><line class="cls-3" x1="22.67" y1="32.01" x2="25" y2="29.68"/><line class="cls-3" x1="29.04" y1="27.34" x2="25" y2="25.01"/><line class="cls-3" x1="32.23" y1="26.49" x2="29.04" y2="27.34"/><line class="cls-3" x1="29.9" y1="30.53" x2="29.04" y2="27.34"/><line class="cls-3" x1="29.04" y1="22.68" x2="25" y2="25.01"/><line class="cls-3" x1="29.9" y1="19.49" x2="29.04" y2="22.68"/><line class="cls-3" x1="32.23" y1="23.53" x2="29.04" y2="22.68"/></g></g></svg>