<svg xmlns="http://www.w3.org/2000/svg" viewBox="0 0 44 44"><defs><style>.cls-1{fill:#ea4460;}.cls-2,.cls-3{fill:#efece8;}.cls-3,.cls-4{fill-rule:evenodd;}.cls-4{opacity:0.2;}.cls-5,.cls-6,.cls-7{fill:none;stroke:#2e313f;stroke-miterlimit:10;}.cls-5,.cls-7{stroke-width:2px;}.cls-7{stroke-linecap:round;}</style></defs><title>gift-2</title><g id="Layer_2" data-name="Layer 2"><g id="Outlines"><rect class="cls-1" x="0.96" y="9" width="42" height="10" rx="1" ry="1"/><path class="cls-1" d="M4,19H40a0,0,0,0,1,0,0V42a1,1,0,0,1-1,1H5a1,1,0,0,1-1-1V19A0,0,0,0,1,4,19Z"/><polygon class="cls-2" points="36.81 43 39.96 39.85 39.96 31.85 28.81 43 36.81 43"/><path class="cls-3" d="M2,9a1,1,0,0,0-1,1v4.85L6.81,9Z"/><polygon class="cls-3" points="3.96 27.85 22.81 9 14.81 9 3.96 19.85 3.96 27.85"/><path class="cls-3" d="M4,42a1,1,0,0,0,.88,1l34-34h-8L4,35.85Z"/><path class="cls-3" d="M20.81,43,40,23.85V19h2a1,1,0,0,0,1-1V12.85L12.81,43Z"/><path class="cls-4" d="M39,40H5a1,1,0,0,1-1-1v3a1,1,0,0,0,1,1H39a1,1,0,0,0,1-1V39A1,1,0,0,1,39,40Z"/><path class="cls-4" d="M42,16H2a1,1,0,0,1-1-1v3a1,1,0,0,0,1,1H42a1,1,0,0,0,1-1V15A1,1,0,0,1,42,16Z"/><rect class="cls-5" x="1" y="9" width="42" height="10" rx="1" ry="1"/><path class="cls-5" d="M4,19H40a0,0,0,0,1,0,0V42a1,1,0,0,1-1,1H5a1,1,0,0,1-1-1V19A0,0,0,0,1,4,19Z"/><line class="cls-6" x1="22.85" y1="9" x2="4" y2="27.85"/><line class="cls-6" x1="4" y1="35.85" x2="30.85" y2="9"/><line class="cls-6" x1="4.87" y1="42.97" x2="38.85" y2="9"/><line class="cls-6" x1="4" y1="19.85" x2="14.85" y2="9"/><line class="cls-6" x1="6.85" y1="9" x2="1" y2="14.85"/><line class="cls-6" x1="40" y1="39.85" x2="36.85" y2="43"/><line class="cls-6" x1="40" y1="31.85" x2="28.85" y2="43"/><line class="cls-6" x1="12.85" y1="43" x2="43" y2="12.85"/><line class="cls-6" x1="40" y1="23.85" x2="20.85" y2="43"/><circle class="cls-5" cx="18" cy="5" r="4"/><circle class="cls-5" cx="26" cy="5" r="4"/><line class="cls-7" x1="19.11" y1="13.96" x2="22" y2="5.66"/><line class="cls-7" x1="24.89" y1="13.96" x2="22" y2="5.66"/></g></g></svg>