<svg xmlns="http://www.w3.org/2000/svg" width="34" height="44" viewBox="0 0 34 44">
  <title>gift-bag</title>
  <g>
    <polygon points="33 43 1 43 3 11 31 11 33 43" fill="#ea4460"/>
    <polygon points="33 43 1 43 3 11 31 11 33 43" fill="none" stroke="#2e313f" stroke-linejoin="round" stroke-width="2"/>
    <g>
      <line x1="17" y1="22.333" x2="17" y2="27" fill="none" stroke="#f9f9f9" stroke-miterlimit="10" stroke-width="1.5"/>
      <line x1="14.667" y1="20" x2="17" y2="22.333" fill="none" stroke="#f9f9f9" stroke-miterlimit="10" stroke-width="1.5"/>
      <line x1="19.333" y1="20" x2="17" y2="22.333" fill="none" stroke="#f9f9f9" stroke-miterlimit="10" stroke-width="1.5"/>
      <line x1="12.959" y1="24.667" x2="17" y2="27" fill="none" stroke="#f9f9f9" stroke-miterlimit="10" stroke-width="1.5"/>
      <line x1="9.771" y1="25.521" x2="12.959" y2="24.667" fill="none" stroke="#f9f9f9" stroke-miterlimit="10" stroke-width="1.5"/>
      <line x1="12.104" y1="21.479" x2="12.959" y2="24.667" fill="none" stroke="#f9f9f9" stroke-miterlimit="10" stroke-width="1.5"/>
      <line x1="12.959" y1="29.333" x2="17" y2="27" fill="none" stroke="#f9f9f9" stroke-miterlimit="10" stroke-width="1.5"/>
      <line x1="12.104" y1="32.521" x2="12.959" y2="29.333" fill="none" stroke="#f9f9f9" stroke-miterlimit="10" stroke-width="1.5"/>
      <line x1="9.771" y1="28.479" x2="12.959" y2="29.333" fill="none" stroke="#f9f9f9" stroke-miterlimit="10" stroke-width="1.5"/>
      <line x1="17" y1="31.667" x2="17" y2="27" fill="none" stroke="#f9f9f9" stroke-miterlimit="10" stroke-width="1.5"/>
      <line x1="19.333" y1="34" x2="17" y2="31.667" fill="none" stroke="#f9f9f9" stroke-miterlimit="10" stroke-width="1.5"/>
      <line x1="14.667" y1="34" x2="17" y2="31.667" fill="none" stroke="#f9f9f9" stroke-miterlimit="10" stroke-width="1.5"/>
      <line x1="21.041" y1="29.333" x2="17" y2="27" fill="none" stroke="#f9f9f9" stroke-miterlimit="10" stroke-width="1.5"/>
      <line x1="24.229" y1="28.479" x2="21.041" y2="29.333" fill="none" stroke="#f9f9f9" stroke-miterlimit="10" stroke-width="1.5"/>
      <line x1="21.896" y1="32.521" x2="21.041" y2="29.333" fill="none" stroke="#f9f9f9" stroke-miterlimit="10" stroke-width="1.5"/>
      <line x1="21.041" y1="24.667" x2="17" y2="27" fill="none" stroke="#f9f9f9" stroke-miterlimit="10" stroke-width="1.5"/>
      <line x1="21.896" y1="21.479" x2="21.041" y2="24.667" fill="none" stroke="#f9f9f9" stroke-miterlimit="10" stroke-width="1.5"/>
      <line x1="24.229" y1="25.521" x2="21.041" y2="24.667" fill="none" stroke="#f9f9f9" stroke-miterlimit="10" stroke-width="1.5"/>
    </g>
    <path d="M10,15V8a7,7,0,0,1,7-7h0a7,7,0,0,1,7,7v7" fill="none" stroke="#2e313f" stroke-linecap="round" stroke-miterlimit="10" stroke-width="2"/>
  </g>
</svg>
