<svg xmlns="http://www.w3.org/2000/svg" viewBox="0 0 44 44"><defs><style>.cls-1{fill:#ea4460;}.cls-2{fill-rule:evenodd;opacity:0.2;}.cls-3{fill:#5da9d8;}.cls-4,.cls-5{fill:none;stroke:#2e313f;stroke-miterlimit:10;stroke-width:2px;}.cls-5{stroke-linecap:round;}</style></defs><title>gift-1</title><g id="Layer_2" data-name="Layer 2"><g id="Outlines"><rect class="cls-1" x="0.96" y="9" width="42" height="10" rx="1" ry="1"/><path class="cls-1" d="M4,19H40a0,0,0,0,1,0,0V42a1,1,0,0,1-1,1H5a1,1,0,0,1-1-1V19A0,0,0,0,1,4,19Z"/><path class="cls-2" d="M42,16H2a1,1,0,0,1-1-1v3a1,1,0,0,0,1,1H42a1,1,0,0,0,1-1V15A1,1,0,0,1,42,16Z"/><path class="cls-2" d="M39,40H5a1,1,0,0,1-1-1v3a1,1,0,0,0,1,1H39a1,1,0,0,0,1-1V39A1,1,0,0,1,39,40Z"/><rect class="cls-3" x="16.96" y="9" width="10" height="34"/><rect class="cls-4" x="1" y="9" width="42" height="10" rx="1" ry="1"/><path class="cls-4" d="M4,19H40a0,0,0,0,1,0,0V42a1,1,0,0,1-1,1H5a1,1,0,0,1-1-1V19A0,0,0,0,1,4,19Z"/><rect class="cls-4" x="17" y="9" width="10" height="34"/><circle class="cls-4" cx="18" cy="5" r="4"/><circle class="cls-4" cx="26" cy="5" r="4"/><line class="cls-5" x1="19.03" y1="13.46" x2="21.92" y2="5.16"/><line class="cls-5" x1="24.82" y1="13.46" x2="21.92" y2="5.16"/></g></g></svg>