<svg xmlns="http://www.w3.org/2000/svg" viewBox="0 0 30 44"><defs><style>.cls-1{fill:#efece8;}.cls-2{fill:#e5e4e3;}.cls-3,.cls-4{fill:#72b795;}.cls-3,.cls-6{fill-rule:evenodd;}.cls-5,.cls-6{fill:none;stroke:#2e313f;stroke-linejoin:round;stroke-width:2px;}.cls-6{stroke-linecap:round;}</style></defs><title>greetings-card</title><g id="Layer_2" data-name="Layer 2"><g id="Outlines"><rect class="cls-1" x="1" y="10" width="28" height="33"/><polygon class="cls-2" points="25 1 1 10 25 10 25 1"/><polygon class="cls-3" points="15 16 11.59 21.39 13.42 21.39 8.69 27.69 11.45 27.69 7 34 23 34 18.55 27.69 21.31 27.69 16.58 21.39 18.55 21.39 15 16"/><line class="cls-4" x1="15" y1="34" x2="15" y2="38"/><rect class="cls-5" x="1" y="10" width="28" height="33"/><polygon class="cls-5" points="25 1 1 10 25 10 25 1"/><polygon class="cls-6" points="15 16 11.59 21.39 13.42 21.39 8.69 27.69 11.45 27.69 7 34 23 34 18.55 27.69 21.31 27.69 16.58 21.39 18.55 21.39 15 16"/><line class="cls-5" x1="15" y1="34" x2="15" y2="38"/></g></g></svg>