<svg xmlns="http://www.w3.org/2000/svg" width="34" height="44" viewBox="0 0 34 44">
  <title>hebrew-bible</title>
  <g>
    <path d="M5,1A4,4,0,0,0,1,5V39a4,4,0,0,1,4-4H33V1Z" fill="#9b7e6b"/>
    <path d="M33,43H5a4,4,0,0,1-4-4H1a4,4,0,0,1,4-4H33Z" fill="#e5e4e3"/>
    <line x1="5.5" y1="1" x2="5.5" y2="35" fill="none" stroke="#2e313f" stroke-miterlimit="10"/>
    <g>
      <polygon points="26.429 22.311 11 22.311 18.714 9 26.429 22.311" fill="none" stroke="#2e313f" stroke-miterlimit="10" stroke-width="2"/>
      <polygon points="11 13.689 26.429 13.689 18.714 27 11 13.689" fill="none" stroke="#2e313f" stroke-miterlimit="10" stroke-width="2"/>
    </g>
    <path d="M5,1A4,4,0,0,0,1,5V39a4,4,0,0,1,4-4H33V1Z" fill="none" stroke="#2e313f" stroke-miterlimit="10" stroke-width="2"/>
    <path d="M33,43H5a4,4,0,0,1-4-4H1a4,4,0,0,1,4-4H33Z" fill="none" stroke="#2e313f" stroke-miterlimit="10" stroke-width="2"/>
  </g>
</svg>
