<svg xmlns="http://www.w3.org/2000/svg" viewBox="0 0 44 39.56"><defs><style>.cls-1{fill:#72b795;}.cls-2{fill:#ea4460;}.cls-3{fill:none;stroke:#2e313f;stroke-linecap:round;stroke-linejoin:round;stroke-width:2px;}</style></defs><title>holly</title><g id="Layer_2" data-name="Layer 2"><g id="Outlines"><path class="cls-1" d="M13.5,19.69a3,3,0,0,1,4.95,3.11h0a3,3,0,0,1,.83-1.68,1.89,1.89,0,0,1,.31-.25q.12-.35.27-.69a3,3,0,1,1,2.66-5.08,1.83,1.83,0,0,1,.13.16q.39-.54.78-1s-6.25.84-5.24-5.11c0,0-5.52-.35-3.86-5.19,0,0-5.06-.22-7-2.95C8.41,4.2,5.89,8.44,5.89,8.44c5,1.13,2.48,6.23,2.48,6.23C14,17,10,21.81,10,21.81a16.55,16.55,0,0,1,2.68-.08A3,3,0,0,1,13.5,19.69Z"/><path class="cls-1" d="M17.76,23.92A3,3,0,0,1,13,20.4a25.9,25.9,0,0,1-4.43-1.23s2.73,5.67-3.24,6.55c0,0,1.37,5.33-3.74,5.25,0,0,1.35,4.87-.63,7.59,2.7-2,7.51-.94,7.51-.94-.46-5.09,5.16-4.27,5.16-4.27.44-6,6.3-3.71,6.3-3.71a20.72,20.72,0,0,1-1.64-6.48A3,3,0,0,1,17.76,23.92Z"/><path class="cls-1" d="M37,15.31c-3.43,3.78-6.39-.88-6.39-.88-4.72,3.74-7-2.12-7-2.12a22.17,22.17,0,0,1-1.26,2.61c.08.07.16.12.23.19a3,3,0,0,1-3.76,4.64,6.59,6.59,0,0,1-.61.51,2.73,2.73,0,0,1,.23.45,9.53,9.53,0,0,1,.72.64c.06-.07.11-.15.18-.22A3,3,0,1,1,22.63,26a16.09,16.09,0,0,1,.84,1.74s2.33-5.83,7-2c0,0,3.25-4.65,6.64-.83,0,0,2.51-4.23,5.83-4.82C39.61,19.63,37,15.31,37,15.31Z"/><path class="cls-2" d="M23.58,25.35a3,3,0,1,1,0-4.24A3,3,0,0,1,23.58,25.35Z"/><path class="cls-2" d="M22.58,19.35a3,3,0,1,1,0-4.24A3,3,0,0,1,22.58,19.35Z"/><path class="cls-2" d="M17.76,23.92a3,3,0,1,1,0-4.25A3,3,0,0,1,17.76,23.92Z"/><path class="cls-3" d="M13.54,19.69a3,3,0,0,1,4.95,3.11h0a3,3,0,0,1,.83-1.68,2.34,2.34,0,0,1,.3-.25c.09-.23.18-.46.28-.69a3,3,0,1,1,2.66-5.08c0,.05.08.11.13.16q.39-.54.78-1s-6.26.84-5.25-5.11c0,0-5.51-.35-3.85-5.19,0,0-5.07-.22-7-2.95C8.45,4.2,5.93,8.44,5.93,8.44c5,1.13,2.47,6.23,2.47,6.23C14,17,10,21.81,10,21.81a16.52,16.52,0,0,1,2.68-.08A3,3,0,0,1,13.54,19.69Z"/><path class="cls-3" d="M17.8,23.92A3,3,0,0,1,13,20.4a25.65,25.65,0,0,1-4.43-1.23s2.72,5.67-3.24,6.55c0,0,1.37,5.33-3.74,5.25,0,0,1.35,4.87-.63,7.59,2.7-2,7.51-.94,7.51-.94-.46-5.09,5.16-4.27,5.16-4.27.44-6,6.3-3.71,6.3-3.71a20.72,20.72,0,0,1-1.64-6.48A3.25,3.25,0,0,1,17.8,23.92Z"/><path class="cls-3" d="M37,15.31c-3.44,3.78-6.39-.88-6.39-.88-4.73,3.74-7-2.12-7-2.12a22.17,22.17,0,0,1-1.26,2.61c.08.07.16.12.23.19a3,3,0,0,1-3.76,4.64,6.59,6.59,0,0,1-.61.51,2.73,2.73,0,0,1,.23.45c.22.18.46.39.72.64.06-.07.11-.15.18-.22a3,3,0,1,1,4.26,4.22,2.92,2.92,0,0,1-1,.65,13.05,13.05,0,0,1,.84,1.74s2.34-5.83,7-2c0,0,3.25-4.65,6.64-.83,0,0,2.51-4.23,5.83-4.82C39.65,19.63,37,15.31,37,15.31Z"/><path class="cls-3" d="M23.62,25.35a3,3,0,1,1,0-4.24A3,3,0,0,1,23.62,25.35Z"/><path class="cls-3" d="M22.62,19.35a3,3,0,1,1,0-4.24A3,3,0,0,1,22.62,19.35Z"/><path class="cls-3" d="M17.8,23.92a3,3,0,1,1,0-4.25A3,3,0,0,1,17.8,23.92Z"/></g></g></svg>