<svg xmlns="http://www.w3.org/2000/svg" viewBox="0 0 41 44"><defs><style>.cls-1{fill:#b5856b;}.cls-2{opacity:0.2;}.cls-3,.cls-4{fill:none;stroke:#2e313f;stroke-linejoin:round;stroke-width:2px;}.cls-4{stroke-linecap:round;}</style></defs><title>ice-skate</title><g id="Layer_2" data-name="Layer 2"><g id="Outlines"><path class="cls-1" d="M38,22.49s-.42-9.49-.5-12S34.41,4.69,31,4.69C31,4.69,28.54,1,24.59,1s-4.28,2.43-4.28,2.43.59,10.41-.76,13-6,5.66-9.4,6.38C4.52,24,1,25.85,1,30.05S4.91,35,6,35H35.67s4.28-.34,3.53-4.62S38.15,25.43,38,22.49Z"/><g class="cls-2"><path d="M39.06,29.64C38.29,31.78,35.67,32,35.67,32H6c-.91,0-4-.57-4.77-3.49A6.71,6.71,0,0,0,1,30.05C1,34.24,4.91,35,6,35H35.67s4.28-.34,3.53-4.62C39.15,30.12,39.11,29.87,39.06,29.64Z"/><path d="M20.41,3.09a1.86,1.86,0,0,0-.1.34s.08,1.45.11,3.39C20.45,5.49,20.43,4.18,20.41,3.09Z"/></g><path class="cls-3" d="M38,22.49s-.42-9.49-.5-12S34.41,4.69,31,4.69C31,4.69,28.54,1,24.59,1s-4.28,2.43-4.28,2.43.59,10.41-.76,13-6,5.66-9.4,6.38C4.52,24,1,25.85,1,30.05S4.91,35,6,35H35.67s4.28-.34,3.53-4.62S38.15,25.43,38,22.49Z"/><line class="cls-4" x1="26.16" y1="11" x2="20.39" y2="11"/><line class="cls-4" x1="25.35" y1="17.94" x2="19.81" y2="15.77"/><line class="cls-4" x1="20.97" y1="23.25" x2="16.47" y2="19.75"/><path class="cls-4" d="M40,43H5a4,4,0,0,1-4-4H1"/><path class="cls-4" d="M8.5,43a8,8,0,0,0,3.81-7"/><path class="cls-4" d="M33.12,43a8,8,0,0,1-3.81-7"/></g></g></svg>