<svg xmlns="http://www.w3.org/2000/svg" viewBox="0 0 44 44"><defs><style>.cls-1{fill:#f7c06f;}.cls-2{fill:#f9f9f9;}.cls-3{fill:none;stroke:#2e313f;stroke-linejoin:round;stroke-width:2px;}</style></defs><title>invitation</title><g id="Layer_2" data-name="Layer 2"><g id="Outlines"><polygon class="cls-1" points="43 17 22 1 1 17 22 34 43 17"/><rect class="cls-2" x="8" y="1" width="28" height="32"/><polygon class="cls-1" points="22 34 1 17 1 43 43 43 43 17 22 34"/><polygon id="_Path_" data-name="&lt;Path&gt;" class="cls-1" points="22 26 43 43 1 43 22 26"/><polygon class="cls-1" points="18.8 11.17 16.89 13.2 16.44 10.45 13.92 9.25 16.41 7.97 16.76 5.21 18.74 7.17 21.49 6.66 20.23 9.15 21.56 11.6 18.8 11.17"/><polygon class="cls-1" points="24.96 17.26 22.46 16.01 24.98 14.79 25.4 12.03 27.33 14.04 30.09 13.59 28.77 16.05 30.05 18.54 27.3 18.04 25.34 20.03 24.96 17.26"/><polygon class="cls-3" points="8 11.67 1 17 8 22.67 8 11.67"/><polygon class="cls-3" points="36 22.67 43 17 36 11.67 36 22.67"/><polygon class="cls-3" points="18.8 11.17 16.89 13.2 16.44 10.45 13.92 9.25 16.41 7.97 16.76 5.21 18.74 7.17 21.49 6.66 20.23 9.15 21.56 11.6 18.8 11.17"/><polygon class="cls-3" points="24.96 17.26 22.46 16.01 24.98 14.79 25.4 12.03 27.33 14.04 30.09 13.59 28.77 16.05 30.05 18.54 27.3 18.04 25.34 20.03 24.96 17.26"/><polygon class="cls-3" points="1 17 1 43 17.06 30 1 17"/><polygon class="cls-3" points="26.94 30 43 43 43 17 26.94 30"/><polygon id="_Path_2" data-name="&lt;Path&gt;" class="cls-3" points="22 26 43 43 1 43 22 26"/><polygon class="cls-3" points="22 26 26.94 30 36 22.67 36 1 8 1 8 22.67 17.06 30 22 26"/></g></g></svg>