<svg xmlns="http://www.w3.org/2000/svg" viewBox="0 0 44 39"><defs><style>.cls-1{fill:#aa8c77;}.cls-2{fill:#9b7e6b;}.cls-3{fill:#ea4460;}.cls-4{fill:#2e313f;}.cls-5{fill:#72b795;}.cls-6{fill:#6d533f;}.cls-7,.cls-8{fill:none;stroke:#2e313f;stroke-miterlimit:10;}.cls-7{stroke-width:2px;}</style></defs><title>kwanzaa</title><g id="Layer_2" data-name="Layer 2"><g id="Outlines"><path class="cls-1" d="M3,38c0-2.76.31-5,19-5s19,2.24,19,5Z"/><rect class="cls-2" x="1" y="18" width="42" height="4"/><rect class="cls-3" x="2.5" y="15" width="3" height="3"/><rect class="cls-3" x="8.5" y="15" width="3" height="3"/><rect class="cls-3" x="14.5" y="15" width="3" height="3"/><rect class="cls-4" x="20.5" y="15" width="3" height="3"/><rect class="cls-5" x="26.5" y="15" width="3" height="3"/><rect class="cls-5" x="32.5" y="15" width="3" height="3"/><rect class="cls-5" x="38.5" y="15" width="3" height="3"/><path class="cls-1" d="M43,22c0,3.87-3.2,7-21,7S1,25.87,1,22Z"/><circle class="cls-6" cx="22" cy="30" r="5"/><line class="cls-7" x1="22" y1="15" x2="22"/><line class="cls-7" x1="16" y1="15" x2="16" y2="2"/><line class="cls-7" x1="4" y1="15" x2="4" y2="2"/><line class="cls-7" x1="10" y1="15" x2="10" y2="2"/><line class="cls-7" x1="34" y1="15" x2="34" y2="2"/><line class="cls-7" x1="40" y1="15" x2="40" y2="2"/><line class="cls-7" x1="28" y1="15" x2="28" y2="2"/><rect class="cls-7" x="1" y="18" width="42" height="4"/><rect class="cls-8" x="2.5" y="15" width="3" height="3"/><rect class="cls-8" x="8.5" y="15" width="3" height="3"/><rect class="cls-8" x="14.5" y="15" width="3" height="3"/><rect class="cls-8" x="20.5" y="15" width="3" height="3"/><rect class="cls-8" x="26.5" y="15" width="3" height="3"/><rect class="cls-8" x="32.5" y="15" width="3" height="3"/><rect class="cls-8" x="38.5" y="15" width="3" height="3"/><path class="cls-7" d="M1,22c0,3.48,2.61,6.37,16.13,6.91a5,5,0,0,1,9.74,0C40.39,28.37,43,25.48,43,22Z"/><path class="cls-7" d="M25.94,33a4.94,4.94,0,0,1-7.88,0C3.28,33.35,3,35.45,3,38H41C41,35.45,40.72,33.35,25.94,33Z"/><circle class="cls-7" cx="22" cy="30" r="5"/></g></g></svg>