<svg xmlns="http://www.w3.org/2000/svg" viewBox="0 0 40.04 44"><defs><style>.cls-1,.cls-3,.cls-4{fill:none;stroke-miterlimit:10;stroke-width:2px;}.cls-1{stroke:#e0b175;}.cls-2{fill:#f7c06f;}.cls-3{stroke:#92bad6;}.cls-4{stroke:#2e313f;}</style></defs><title>menorah</title><g id="Layer_2" data-name="Layer 2"><g id="Outlines"><line class="cls-1" x1="20" y1="10" x2="20" y2="39.04"/><path class="cls-2" d="M24,43H16a4,4,0,0,1,8,0Z"/><path class="cls-1" d="M26,12a6,6,0,0,1-12,0"/><path class="cls-1" d="M32,12A12,12,0,0,1,8,12"/><path class="cls-1" d="M38,12A18,18,0,0,1,2,12"/><line class="cls-1" x1="18" y1="10" x2="22" y2="10"/><line class="cls-1" x1="12" y1="12" x2="16" y2="12"/><line class="cls-1" x1="6" y1="12" x2="10" y2="12"/><line class="cls-1" y1="12" x2="4" y2="12"/><line class="cls-1" x1="24" y1="12" x2="28" y2="12"/><line class="cls-1" x1="30" y1="12" x2="34" y2="12"/><line class="cls-1" x1="36" y1="12" x2="40" y2="12"/><line class="cls-3" x1="20" y1="10" x2="20"/><line class="cls-3" x1="14" y1="12" x2="14" y2="2"/><line class="cls-3" x1="2" y1="12" x2="2" y2="2"/><line class="cls-3" x1="8" y1="12" x2="8" y2="2"/><line class="cls-3" x1="32" y1="12" x2="32" y2="2"/><line class="cls-3" x1="38" y1="12" x2="38" y2="2"/><line class="cls-3" x1="26" y1="12" x2="26" y2="2"/><line class="cls-4" x1="20.04" y1="10" x2="20.04" y2="39.04"/><path class="cls-4" d="M24,43H16a4,4,0,0,1,8,0Z"/><path class="cls-4" d="M26,12a6,6,0,0,1-12,0"/><path class="cls-4" d="M32,12A12,12,0,0,1,8,12"/><path class="cls-4" d="M38,12A18,18,0,0,1,2,12"/><line class="cls-4" x1="18.04" y1="10" x2="22.04" y2="10"/><line class="cls-4" x1="12.04" y1="12" x2="16.04" y2="12"/><line class="cls-4" x1="6.04" y1="12" x2="10.04" y2="12"/><line class="cls-4" x1="0.04" y1="12" x2="4.04" y2="12"/><line class="cls-4" x1="24.04" y1="12" x2="28.04" y2="12"/><line class="cls-4" x1="30.04" y1="12" x2="34.04" y2="12"/><line class="cls-4" x1="36.04" y1="12" x2="40.04" y2="12"/><line class="cls-4" x1="20.04" y1="10" x2="20.04"/><line class="cls-4" x1="14.04" y1="12" x2="14.04" y2="2"/><line class="cls-4" x1="2.04" y1="12" x2="2.04" y2="2"/><line class="cls-4" x1="8.04" y1="12" x2="8.04" y2="2"/><line class="cls-4" x1="32.04" y1="12" x2="32.04" y2="2"/><line class="cls-4" x1="38.04" y1="12" x2="38.04" y2="2"/><line class="cls-4" x1="26.04" y1="12" x2="26.04" y2="2"/></g></g></svg>