<svg xmlns="http://www.w3.org/2000/svg" width="42" height="44" viewBox="0 0 42 44">
  <title>milk</title>
  <g>
    <polygon points="25 43 39 43 40.231 27 23.769 27 25 43" fill="#efece8"/>
    <path d="M6.46,43h7.4a5.4,5.4,0,0,0,5.46-5.04V19.214H1V37.96A5.4,5.4,0,0,0,6.46,43Z" fill="#efece8"/>
    <polygon points="24.769 40 25 43 39 43 39.231 40 24.769 40" opacity="0.2"/>
    <path d="M19.32,17.59c0-2.9-2.088-6.6-3.765-9.568-.535-.947-1.169-2.068-1.478-2.766a1.944,1.944,0,0,0,.527-.631A2.828,2.828,0,0,0,14.91,3.31,2.06,2.06,0,0,0,13.02,1H7.3A1.794,1.794,0,0,0,5.716,2,2.826,2.826,0,0,0,5.41,3.31a2.42,2.42,0,0,0,.831,1.948c-.309.7-.941,1.818-1.476,2.764C3.088,10.991,1,14.686,1,17.59v1.624H19.32Z" fill="#f9f9f9"/>
    <path d="M13.86,40H6.46A5.4,5.4,0,0,1,1,34.96v3A5.4,5.4,0,0,0,6.46,43h7.4a5.4,5.4,0,0,0,5.46-5.04v-3A5.4,5.4,0,0,1,13.86,40Z" opacity="0.2"/>
    <path d="M6.46,43h7.4a5.4,5.4,0,0,0,5.46-5.04V19.214H1V37.96A5.4,5.4,0,0,0,6.46,43Z" fill="none" stroke="#2e313f" stroke-miterlimit="10" stroke-width="2"/>
    <polygon points="40.231 27 41 17 23 17 23.769 27 40.231 27" fill="#f9f9f9"/>
    <polygon points="25 43 39 43 40.231 27 23.769 27 25 43" fill="none" stroke="#2e313f" stroke-linejoin="round" stroke-width="2"/>
    <path d="M19.32,17.59c0-2.9-2.088-6.6-3.765-9.568-.535-.947-1.169-2.068-1.478-2.766a1.944,1.944,0,0,0,.527-.631A2.828,2.828,0,0,0,14.91,3.31,2.06,2.06,0,0,0,13.02,1H7.3A1.794,1.794,0,0,0,5.716,2,2.826,2.826,0,0,0,5.41,3.31a2.42,2.42,0,0,0,.831,1.948c-.309.7-.941,1.818-1.476,2.764C3.088,10.991,1,14.686,1,17.59v1.624H19.32Z" fill="none" stroke="#2e313f" stroke-linejoin="round" stroke-width="2"/>
    <polygon points="40.231 27 41 17 23 17 23.769 27 40.231 27" fill="none" stroke="#2e313f" stroke-linejoin="round" stroke-width="2"/>
  </g>
</svg>
