<svg xmlns="http://www.w3.org/2000/svg" viewBox="0 0 44 44"><defs><style>.cls-1{fill:#db3a5d;}.cls-2{fill:#ea4460;}.cls-3{opacity:0.2;}.cls-4{fill:#efece8;}.cls-5{fill:#e5e4e3;}.cls-6{fill:none;stroke:#2e313f;stroke-miterlimit:10;stroke-width:2px;}</style></defs><title>mittons</title><g id="Layer_2" data-name="Layer 2"><g id="Outlines"><path class="cls-1" d="M20,26a1,1,0,0,1,1-1V17.92l-7-7c-2.8-2.8-7.57-2.61-10.6.42S.15,19.13,3,21.93L7.12,26.1l-2.72.11A2.75,2.75,0,0,0,1.81,28.8a2.27,2.27,0,0,0,2.4,2.4l7.49-.29a1.38,1.38,0,0,0,.2,0l2.93,2.92L20,28.67Z"/><path class="cls-2" d="M21,8.2c0-4,3.51-7.2,7.79-7.2s7.79,3.24,7.79,7.2v5.91l2-1.85a2.76,2.76,0,0,1,3.67,0,2.28,2.28,0,0,1,0,3.39l-5.5,5.09-.16.13V25H21Z"/><g class="cls-3"><rect x="20.96" y="22" width="15.57" height="3"/></g><rect class="cls-4" x="19.96" y="25" width="18" height="5" rx="1" ry="1"/><g class="cls-3"><path d="M20,25.67,14.83,30.8,11.9,27.88a1.38,1.38,0,0,1-.2,0l-7.49.29a2.27,2.27,0,0,1-1.89-.85,2.68,2.68,0,0,0-.51,1.45,2.27,2.27,0,0,0,2.4,2.4l7.49-.29a1.38,1.38,0,0,0,.2,0l2.93,2.92L20,28.67v-3Z"/></g><path class="cls-5" d="M21,30a1,1,0,0,1-1-1v-.33l-5.44,5.44a1,1,0,0,0,0,1.41l2.12,2.12a1,1,0,0,0,1.42,0L25.7,30Z"/><path class="cls-6" d="M22,33.8V38a5,5,0,0,0,5,5h0a5,5,0,0,0,5-5V30"/><path class="cls-6" d="M21,8.2c0-4,3.5-7.2,7.79-7.2s7.78,3.24,7.78,7.2v5.91l2-1.85a2.76,2.76,0,0,1,3.67,0,2.28,2.28,0,0,1,0,3.39l-5.5,5.09c-.05.05-.11.08-.17.13V25H21Z"/><rect class="cls-6" x="20" y="25" width="18" height="5" rx="1" ry="1"/><path class="cls-6" d="M20,26a1,1,0,0,1,1-1V17.92l-7-7c-2.8-2.8-7.57-2.61-10.6.42S.18,19.13,3,21.93L7.16,26.1l-2.72.11a2.65,2.65,0,0,0-1.79.8,2.73,2.73,0,0,0-.81,1.79,2.28,2.28,0,0,0,2.4,2.4l7.5-.29a1.38,1.38,0,0,0,.2,0l2.92,2.92L20,28.67Z"/><path class="cls-6" d="M21,30a1,1,0,0,1-1-1v-.33l-5.44,5.44a1,1,0,0,0,0,1.41l2.12,2.12a1,1,0,0,0,1.42,0L25.74,30Z"/></g></g></svg>