<svg xmlns="http://www.w3.org/2000/svg" viewBox="0 0 44 41.73"><defs><style>.cls-1{fill:#f7c06f;}.cls-2{fill:#7fd6d2;}.cls-3{fill:#ea4460;}.cls-4{fill:none;stroke:#2e313f;stroke-linejoin:round;stroke-width:2px;}</style></defs><title>party-hats</title><g id="Layer_2" data-name="Layer 2"><g id="Outlines"><path class="cls-1" d="M25.7,36.25a30.51,30.51,0,0,1-12,4.22A30.52,30.52,0,0,1,1,39.5L10.07,7.89Z"/><path class="cls-2" d="M11.3,22.27a30.64,30.64,0,0,0,5.93-1.39L14,15.07a30.27,30.27,0,0,1-3.58.7c-.94.12-1.84.19-2.71.23L5.88,22.5A31.06,31.06,0,0,0,11.3,22.27Z"/><path class="cls-2" d="M13,35.27A31.44,31.44,0,0,0,23.36,32l-3-5.48a31.4,31.4,0,0,1-8.19,2.25,31.36,31.36,0,0,1-8.07,0L2.34,34.83A31.77,31.77,0,0,0,13,35.27Z"/><circle class="cls-3" cx="10.08" cy="8.48" r="2.93"/><path class="cls-3" d="M43,34.74a30.6,30.6,0,0,1-12.68,1.07,30.45,30.45,0,0,1-12-4.14L35,3.35Z"/><circle class="cls-2" cx="34.86" cy="3.93" r="2.93"/><path class="cls-1" d="M37.12,19a2.88,2.88,0,0,0,1.77-.34L37.5,13.14A2.92,2.92,0,0,0,37.12,19Z"/><circle class="cls-1" cx="29.5" cy="23.32" r="2.93"/><path class="cls-1" d="M38.23,33.84A2.93,2.93,0,1,0,33.9,36c1.08,0,2.1,0,3-.12A2.92,2.92,0,0,0,38.23,33.84Z"/><path class="cls-4" d="M11.3,22.27a30.64,30.64,0,0,0,5.93-1.39L14,15.07a30.27,30.27,0,0,1-3.58.7c-.94.12-1.84.19-2.71.23L5.88,22.5A31.06,31.06,0,0,0,11.3,22.27Z"/><path class="cls-4" d="M37.12,19a2.88,2.88,0,0,0,1.77-.34L37.5,13.14A2.92,2.92,0,0,0,37.12,19Z"/><circle class="cls-4" cx="29.5" cy="23.32" r="2.93"/><path class="cls-4" d="M38.23,33.84A2.93,2.93,0,1,0,33.9,36c1.08,0,2.1,0,3-.12A2.92,2.92,0,0,0,38.23,33.84Z"/><circle class="cls-4" cx="34.86" cy="3.93" r="2.93"/><path class="cls-4" d="M24.79,34.59a28.26,28.26,0,0,1-6.51-2.92l2.53-4.29-9.09-16.5a2.91,2.91,0,0,1-1.26.5,3,3,0,0,1-1.35-.15L1,39.5a30.52,30.52,0,0,0,12.69,1,30.51,30.51,0,0,0,12-4.22Z"/><circle class="cls-4" cx="10.08" cy="8.48" r="2.93"/><path class="cls-4" d="M35.85,6.67a2.86,2.86,0,0,1-2.62-.32L18.28,31.67a30.45,30.45,0,0,0,12,4.14A30.6,30.6,0,0,0,43,34.74Z"/><path class="cls-4" d="M18.28,31.67l2.53-4.29-.47-.86a31.4,31.4,0,0,1-8.19,2.25,31.36,31.36,0,0,1-8.07,0L2.34,34.83A31.77,31.77,0,0,0,13,35.27a31.24,31.24,0,0,0,8-2.16A21.15,21.15,0,0,1,18.28,31.67Z"/></g></g></svg>