<svg xmlns="http://www.w3.org/2000/svg" width="44" height="44" viewBox="0 0 44 44">
  <title>penguin</title>
  <g>
    <path d="M31.491,11.834q.037-.469.032-.95A9.883,9.883,0,0,0,22.274,1a9.755,9.755,0,0,0-9.8,10q0,.377.026.745a11.084,11.084,0,0,1-1.932,7.274,15.41,15.41,0,0,0-2.849,9.455C7.949,36.2,13.949,42.616,21.3,42.983,29.51,43.392,36.286,36.527,36.286,28a15.375,15.375,0,0,0-2.874-9.006A10.774,10.774,0,0,1,31.491,11.834Z" fill="#f9f9f9"/>
    <g opacity="0.1">
      <path d="M21.3,39.983c-7.026-.351-12.8-6.227-13.5-13.489a15.821,15.821,0,0,0-.078,1.98C7.949,36.2,13.949,42.616,21.3,42.983,29.51,43.392,36.286,36.527,36.286,28c0-.5-.031-.988-.076-1.474C35.459,34.329,29.014,40.367,21.3,39.983Z"/>
    </g>
    <path d="M30.3,40.19a13.593,13.593,0,0,1-16.569-.009C12.094,40.763,11,41.806,11,43H33C33,41.812,31.917,40.773,30.3,40.19Z" fill="#3b3f4c"/>
    <g>
      <path d="M7.721,28.474a15.46,15.46,0,0,1,2-8.106A95.732,95.732,0,0,1,1,31.443a7.787,7.787,0,0,0,7.065-.164A15.357,15.357,0,0,1,7.721,28.474Z" fill="#3b3f4c"/>
      <path d="M33.412,18.994a10.774,10.774,0,0,1-1.921-7.16q.037-.469.032-.95A9.883,9.883,0,0,0,22.274,1a9.754,9.754,0,0,0-9.8,10q0,.377.026.745a11.084,11.084,0,0,1-1.932,7.274,15.41,15.41,0,0,0-2.849,9.455C7.949,36.2,13.949,42.616,21.3,42.983,29.51,43.392,36.286,36.527,36.286,28A15.375,15.375,0,0,0,33.412,18.994Z" fill="none" stroke="#2e313f" stroke-linejoin="round" stroke-width="2"/>
      <path d="M34.328,20.455A15.427,15.427,0,0,1,36.286,28a15.783,15.783,0,0,1-.35,3.279A7.785,7.785,0,0,0,43,31.443,107.719,107.719,0,0,1,34.328,20.455Z" fill="#3b3f4c"/>
      <path d="M7.721,28.474a15.46,15.46,0,0,1,2-8.106A95.732,95.732,0,0,1,1,31.443a7.787,7.787,0,0,0,7.065-.164A15.357,15.357,0,0,1,7.721,28.474Z" fill="none" stroke="#2e313f" stroke-linejoin="round" stroke-width="2"/>
      <path d="M34.328,20.455A15.427,15.427,0,0,1,36.286,28a15.783,15.783,0,0,1-.35,3.279A7.785,7.785,0,0,0,43,31.443,107.719,107.719,0,0,1,34.328,20.455Z" fill="none" stroke="#2e313f" stroke-linejoin="round" stroke-width="2"/>
    </g>
    <path d="M31.491,11.834q.037-.469.032-.95A9.883,9.883,0,0,0,22.274,1a9.755,9.755,0,0,0-9.8,10q0,.377.026.745a11.084,11.084,0,0,1-1.932,7.274,15.41,15.41,0,0,0-2.849,9.455C7.949,36.2,13.949,42.616,21.3,42.983,29.51,43.392,36.286,36.527,36.286,28a15.375,15.375,0,0,0-2.874-9.006A10.774,10.774,0,0,1,31.491,11.834Z" fill="none" stroke="#2e313f" stroke-linejoin="round" stroke-width="2"/>
    <g>
      <line x1="19" y1="9" x2="19" y2="10" fill="none" stroke="#2e313f" stroke-linecap="round" stroke-linejoin="round" stroke-width="2"/>
      <line x1="25" y1="9" x2="25" y2="10" fill="none" stroke="#2e313f" stroke-linecap="round" stroke-linejoin="round" stroke-width="2"/>
    </g>
    <path d="M22,13s-1.25,1.2-5,1.714L22,19l5-4.286C23.25,14.2,22,13,22,13Z" fill="#f7c06f"/>
    <path d="M30.909,7.545A9.684,9.684,0,0,0,22.274,1a9.547,9.547,0,0,0-9.238,6.643C15.2,5.134,18.494,3.663,22,6,25.5,3.669,28.756,5.057,30.909,7.545Z" fill="#3b3f4c"/>
    <path d="M22,13s-1.25,1.2-5,1.714L22,19l5-4.286C23.25,14.2,22,13,22,13Z" fill="none" stroke="#2e313f" stroke-linejoin="round" stroke-width="2"/>
    <path d="M30.3,40.19a13.593,13.593,0,0,1-16.569-.009C12.094,40.763,11,41.806,11,43H33C33,41.812,31.917,40.773,30.3,40.19Z" fill="none" stroke="#2e313f" stroke-linejoin="round" stroke-width="2"/>
    <path d="M30.909,7.545A9.684,9.684,0,0,0,22.274,1a9.547,9.547,0,0,0-9.238,6.643C15.2,5.134,18.494,3.663,22,6,25.5,3.669,28.756,5.057,30.909,7.545Z" fill="none" stroke="#2e313f" stroke-linejoin="round" stroke-width="2"/>
  </g>
</svg>
