<svg xmlns="http://www.w3.org/2000/svg" viewBox="0 0 42 44.16"><defs><style>.cls-1{fill:#f7c06f;}.cls-2{fill:#72b795;}.cls-3,.cls-4{fill:none;stroke:#2e313f;stroke-linejoin:round;stroke-width:2px;}.cls-4{stroke-linecap:round;}</style></defs><title>reef</title><g id="Layer_2" data-name="Layer 2"><g id="Outlines"><polygon class="cls-1" points="24.2 10.24 25.91 15.85 20.96 12.53 16.02 15.85 17.73 10.24 12.96 6.57 18.9 6.57 20.96 1 23.04 6.57 28.96 6.57 24.2 10.24"/><path class="cls-2" d="M38.09,18.44c-.63-1.92.21-4.6-1-6.2s-4-1.63-5.6-2.8S29.06,5.6,27.14,5c-1.33-.43-2.89.29-4.42.73l.32.87H29L24.2,10.24l.41,1.35a1.14,1.14,0,0,1,.37,0c1.21.4,1.44,2.74,2.45,3.47s3.31.24,4.05,1.26-.45,3-.05,4.24S34,22.71,34,24s-2.15,2.23-2.53,3.4.78,3.23.05,4.24-3,.52-4.05,1.26S26.19,36,25,36.37,22.26,35,21,35s-2.85,1.75-4,1.37S15.5,33.63,14.5,32.9s-3.31-.24-4.06-1.26.45-3,.06-4.24S8,25.29,8,24s2.16-2.23,2.54-3.4-.79-3.23-.06-4.24,3-.52,4.06-1.26,1.23-3.07,2.44-3.47a1.17,1.17,0,0,1,.37,0l.42-1.35L13,6.57H18.9l.32-.87c-1.54-.43-3.1-1.16-4.44-.73-1.92.63-2.8,3.3-4.4,4.47S6,10.63,4.78,12.24s-.32,4.28-.94,6.2S1,22,1,24s2.28,3.71,2.88,5.56-.22,4.6.94,6.2,4,1.63,5.6,2.8,2.48,3.84,4.4,4.47,4.13-1,6.18-1,4.33,1.63,6.18,1,2.81-3.3,4.4-4.47,4.43-1.19,5.6-2.8.32-4.28,1-6.2S41,26.05,41,24,38.69,20.29,38.09,18.44Z"/><polygon class="cls-3" points="24.24 10.24 25.94 15.85 21 12.53 16.06 15.85 17.76 10.24 13 6.57 18.94 6.57 21 1 23.08 6.57 29 6.57 24.24 10.24"/><path class="cls-4" d="M38.12,18.44c-.62-1.92.22-4.6-.94-6.2s-4-1.63-5.6-2.8S29.1,5.6,27.18,5c-1.33-.43-2.89.29-4.43.73l.33.87H29l-4.76,3.67.41,1.35a1.17,1.17,0,0,1,.37,0c1.21.4,1.44,2.74,2.45,3.47s3.31.24,4.05,1.26-.45,3-.06,4.24S34,22.71,34,24s-2.16,2.23-2.54,3.4.79,3.23.06,4.24-3,.52-4.05,1.26S26.23,36,25,36.37,22.29,35,21,35s-2.85,1.75-4,1.37-1.44-2.74-2.45-3.47-3.31-.24-4-1.26.45-3,.06-4.24S8,25.29,8,24s2.16-2.23,2.54-3.4-.79-3.23-.06-4.24,3-.52,4-1.26S15.77,12,17,11.63a1.17,1.17,0,0,1,.37,0l.41-1.35L13,6.57h5.94l.32-.87c-1.54-.43-3.1-1.16-4.44-.73-1.92.63-2.8,3.3-4.4,4.47S6,10.63,4.82,12.24s-.32,4.28-.94,6.2S1,22,1,24s2.28,3.71,2.88,5.56-.22,4.6.94,6.2,4,1.63,5.6,2.8S12.9,42.4,14.82,43,19,42,21,42s4.33,1.63,6.18,1,2.8-3.3,4.4-4.47,4.43-1.19,5.6-2.8.32-4.28.94-6.2S41,26.05,41,24,38.72,20.29,38.12,18.44Z"/></g></g></svg>