<svg xmlns="http://www.w3.org/2000/svg" viewBox="0 0 44 37.07"><defs><style>.cls-1{fill:#db3a5d;}.cls-2{fill:#ea4460;}.cls-3{fill:none;stroke:#2e313f;stroke-miterlimit:10;stroke-width:2px;}</style></defs><title>ribbon</title><g id="Layer_2" data-name="Layer 2"><g id="Outlines"><path class="cls-1" d="M18.43,8.36a24.82,24.82,0,0,1-3.76,1.22c-1.29,1.4-2.73,3.81-3.81,8C8.61,26.19,7.11,33.25,7.11,33.25l4.29-1.6,2.73,3.13s2.47-14.1,3-16.17c.43-1.64,1.42-6.92,2.31-9.55A1.93,1.93,0,0,1,18.43,8.36Z"/><path class="cls-1" d="M29.43,9.69a23.82,23.82,0,0,1-3.95-1.3A2.09,2.09,0,0,1,24.6,9c.87,2.61,1.82,8,2.24,9.62.53,2.08,2.87,16.19,2.87,16.19l2.76-3.11,4.27,1.65s-1.43-7.08-3.61-15.75C32.1,13.52,30.7,11.11,29.43,9.69Z"/><rect class="cls-2" x="17.96" y="3" width="8" height="6" rx="2" ry="2"/><path class="cls-2" d="M18,7V5a2,2,0,0,1,.37-1.14c-3-1.75-8.08-2.66-10.2-2.74C5.61,1,1.46,1,1.46,1A35.65,35.65,0,0,0,1,5.38c-.1,2.36.07,4.9.07,4.9s-1.35.08,6.4.12a27.86,27.86,0,0,0,11-2.06A2,2,0,0,1,18,7Z"/><path class="cls-2" d="M42.94,5.55a35.91,35.91,0,0,0-.43-4.38s-4.14,0-6.67.06c-2.12.07-7.24.93-10.22,2.66A1.94,1.94,0,0,1,26,5V7a2,2,0,0,1-.54,1.36,27.82,27.82,0,0,0,11,2.16c7.75,0,6.4-.06,6.4-.06S43,7.92,42.94,5.55Z"/><path class="cls-3" d="M18.47,8.36a25.21,25.21,0,0,1-3.76,1.22c-1.29,1.4-2.73,3.81-3.81,8C8.64,26.19,7.15,33.25,7.15,33.25l4.29-1.6,2.72,3.13s2.47-14.1,3-16.17c.43-1.64,1.42-6.92,2.31-9.55A1.93,1.93,0,0,1,18.47,8.36Z"/><path class="cls-3" d="M29.47,9.69a23.82,23.82,0,0,1-3.95-1.3,2.06,2.06,0,0,1-.89.64c.88,2.61,1.83,8,2.25,9.62.53,2.08,2.87,16.19,2.87,16.19l2.76-3.11,4.27,1.65s-1.43-7.08-3.61-15.75C32.14,13.52,30.74,11.11,29.47,9.69Z"/><rect class="cls-3" x="18" y="3" width="8" height="6" rx="2" ry="2"/><path class="cls-3" d="M18,7V5a2,2,0,0,1,.36-1.14C15.41,2.11,10.29,1.2,8.17,1.12,5.65,1,1.5,1,1.5,1A35.65,35.65,0,0,0,1,5.38c-.1,2.36.07,4.9.07,4.9s-1.35.08,6.4.12a27.86,27.86,0,0,0,11-2.06A2,2,0,0,1,18,7Z"/><path class="cls-3" d="M43,5.55a35.91,35.91,0,0,0-.43-4.38s-4.14,0-6.67.06c-2.12.07-7.25.93-10.22,2.66A2,2,0,0,1,26,5V7a2,2,0,0,1-.54,1.36,27.82,27.82,0,0,0,11,2.16c7.75,0,6.4-.06,6.4-.06S43.06,7.92,43,5.55Z"/></g></g></svg>