<svg xmlns="http://www.w3.org/2000/svg" viewBox="0 0 32 44"><defs><style>.cls-1,.cls-7,.cls-8,.cls-9{fill:none;stroke-miterlimit:10;}.cls-1{stroke:#e5e4e3;}.cls-1,.cls-9{stroke-linecap:round;}.cls-1,.cls-7,.cls-9{stroke-width:2px;}.cls-2{fill:#aa8c77;}.cls-3{fill:#6d533f;}.cls-4{fill:#ea4460;}.cls-5{fill:#efece8;}.cls-6{fill:#9b7e6b;}.cls-7,.cls-8,.cls-9{stroke:#2e313f;}</style></defs><title>rudolph</title><g id="Layer_2" data-name="Layer 2"><g id="Outlines"><path class="cls-1" d="M7.07,1S.42,10.2,11.16,16"/><path class="cls-1" d="M11.16,6.85S6.6,6.93,5.86,11"/><path class="cls-1" d="M24.86,1s6.64,9.2-4.09,15"/><path class="cls-1" d="M20.77,6.85s4.55.08,5.29,4.12"/><path class="cls-2" d="M27.46,31.73A11.39,11.39,0,0,1,16,43,11.39,11.39,0,0,1,4.46,31.73C4.46,24.93,7.15,15,16,15S27.46,25.11,27.46,31.73Z"/><path class="cls-3" d="M16,29.89A15.2,15.2,0,0,0,4.84,34.55a11.54,11.54,0,0,0,22.24,0A15.2,15.2,0,0,0,16,29.89Z"/><path class="cls-4" d="M16,29.81c2.41,0,4,1.17,4,1.94,0,1-1.73,3.06-4,3.06s-4-2-4-3.06C12,31,13.56,29.81,16,29.81Z"/><circle class="cls-5" cx="11.21" cy="23.81" r="2"/><circle class="cls-5" cx="21.21" cy="23.81" r="2"/><path class="cls-6" d="M29.93,16.64a1.68,1.68,0,0,0-.93-.21c-1.53,0-3.73,1-5.6,2a15.83,15.83,0,0,1,2.94,5.66c2-1.43,4-3.35,4.51-5.1A1.88,1.88,0,0,0,29.93,16.64Z"/><path class="cls-6" d="M8.51,18.43c-1.87-1-4.06-2-5.59-2a1.67,1.67,0,0,0-.92.21A1.88,1.88,0,0,0,1.08,19c.52,1.75,2.5,3.67,4.49,5.09A15.86,15.86,0,0,1,8.51,18.43Z"/><path class="cls-7" d="M27.5,31.73A11.39,11.39,0,0,1,16,43,11.39,11.39,0,0,1,4.5,31.73C4.5,24.93,7.19,15,16,15S27.5,25.11,27.5,31.73Z"/><path class="cls-7" d="M16,29.89A15.2,15.2,0,0,0,4.88,34.55a11.54,11.54,0,0,0,22.24,0A15.2,15.2,0,0,0,16,29.89Z"/><path class="cls-7" d="M16,29.81c2.4,0,4,1.17,4,1.94,0,1-1.73,3.06-4,3.06s-4-2-4-3.06C12,31,13.6,29.81,16,29.81Z"/><circle class="cls-8" cx="11.25" cy="23.81" r="2"/><circle class="cls-8" cx="21.25" cy="23.81" r="2"/><path class="cls-7" d="M30,16.64a1.68,1.68,0,0,0-.93-.21c-1.54,0-3.73,1-5.6,2a16,16,0,0,1,2.94,5.66c2-1.43,4-3.35,4.5-5.1A1.88,1.88,0,0,0,30,16.64Z"/><path class="cls-7" d="M8.55,18.43c-1.87-1-4.06-2-5.59-2a1.68,1.68,0,0,0-.93.21A1.88,1.88,0,0,0,1.12,19c.52,1.75,2.5,3.67,4.49,5.09A15.86,15.86,0,0,1,8.55,18.43Z"/><path class="cls-9" d="M7.11,1S.46,10.2,11.2,16"/><path class="cls-9" d="M11.2,6.85S6.64,6.93,5.9,11"/><path class="cls-9" d="M24.89,1s6.65,9.2-4.09,15"/><path class="cls-9" d="M20.8,6.85s4.56.08,5.3,4.12"/></g></g></svg>