<svg xmlns="http://www.w3.org/2000/svg" viewBox="0 0 42 44"><defs><style>.cls-1{fill:#ea4460;}.cls-2{fill:#efece8;}.cls-3{opacity:0.2;}.cls-4,.cls-5{fill:none;stroke:#2e313f;stroke-miterlimit:10;stroke-width:2px;}.cls-4{stroke-linecap:round;}</style></defs><title>santas-hat</title><g id="Layer_2" data-name="Layer 2"><g id="Outlines"><path class="cls-1" d="M31.35,25.53c-2.46-5-1.83-9.88-1.55-12.82A5.91,5.91,0,0,1,28,13a6,6,0,0,1-6-6,26.32,26.32,0,0,0-7.63,5.64C7.56,20.14,6.19,30.67,6,33H36A37.13,37.13,0,0,1,31.35,25.53Z"/><path class="cls-2" d="M36,43H6a5,5,0,0,1-5-5H1a5,5,0,0,1,5-5H36a5,5,0,0,1,5,5h0A5,5,0,0,1,36,43Z"/><path class="cls-3" d="M36,40H6a5,5,0,0,1-4.74-3.5A4.92,4.92,0,0,0,6,43H36a4.95,4.95,0,0,0,4.75-6.5A5,5,0,0,1,36,40Z"/><g class="cls-3"><path d="M6.39,30C6.14,31.38,6,32.43,6,33H36a30.88,30.88,0,0,1-2.15-3Z"/></g><circle class="cls-2" cx="27.96" cy="7" r="6"/><path class="cls-4" d="M21.93,21.1h0c.08,0,7,0,9.58,4.7"/><path class="cls-5" d="M36,43H6a5,5,0,0,1-5-5H1a5,5,0,0,1,5-5H36a5,5,0,0,1,5,5h0A5,5,0,0,1,36,43Z"/><path class="cls-5" d="M31.39,25.53c-2.46-5-1.84-9.88-1.55-12.82A5.91,5.91,0,0,1,28,13a6,6,0,0,1-6-6,26.36,26.36,0,0,0-7.64,5.64C7.6,20.14,6.23,30.67,6,33H36A37.13,37.13,0,0,1,31.39,25.53Z"/><circle class="cls-5" cx="28" cy="7" r="6"/></g></g></svg>