<svg xmlns="http://www.w3.org/2000/svg" width="37" height="44" viewBox="0 0 37 44">
  <title>santa</title>
  <g>
    <path d="M29.5,14H4.5a3.5,3.5,0,0,0,0,7H7.862c0-.022,0-.045.01-.066a1.472,1.472,0,0,1,.74-.926,9.756,9.756,0,0,1,4.018-1h0a1.494,1.494,0,0,1,1.543,1.572l-.02.424h5.684l-.02-.425a1.518,1.518,0,0,1,.413-1.111A1.5,1.5,0,0,1,21.312,19a9.8,9.8,0,0,1,4.078,1.006,1.471,1.471,0,0,1,.738.925c.006.021.006.044.01.066H29.5a3.5,3.5,0,0,0,0-7Z" fill="#efece8"/>
    <path d="M25.98,9.982c.1-.962.456-2.616,4.467-4.425a2.954,2.954,0,0,1,.038-3.184C26.831.694,18.717-.167,12.705,4.163,7.991,7.558,5.071,12.855,4.932,14h23.4C27.44,13.117,25.8,11.625,25.98,9.982Z" fill="#ea4460"/>
    <path d="M9.453,31.633a9.681,9.681,0,0,1-2.547-.189s3.2,4.409,7.077,3.576A3.7,3.7,0,0,0,16.775,33.3q.225,0,.45,0a3.7,3.7,0,0,0,2.792,1.722c3.873.833,7.077-3.576,7.077-3.576a9.681,9.681,0,0,1-2.547.189A4.248,4.248,0,0,0,27.02,28V21H6.98v7A4.248,4.248,0,0,0,9.453,31.633Z" fill="#f7d5c4"/>
    <circle cx="33" cy="4" r="3" fill="#efece8"/>
    <g opacity="0.2">
      <path d="M30.416,2.5c.024-.041.043-.085.069-.125-.054-.024-.117-.047-.173-.071C30.345,2.368,30.379,2.434,30.416,2.5Z"/>
      <path d="M26.1,11H6.387a10.231,10.231,0,0,0-1.455,3h23.4A8.12,8.12,0,0,1,26.1,11Z"/>
    </g>
    <path d="M25.98,9.982c.1-.962.456-2.616,4.467-4.425a2.954,2.954,0,0,1,.038-3.184C26.831.694,18.717-.167,12.705,4.163,7.991,7.558,5.071,12.855,4.932,14h23.4C27.44,13.117,25.8,11.625,25.98,9.982Z" fill="none" stroke="#2e313f" stroke-miterlimit="10" stroke-width="2"/>
    <circle cx="33" cy="4" r="3" fill="none" stroke="#2e313f" stroke-miterlimit="10" stroke-width="2"/>
    <path d="M20.08,8.051h0c.047,0,4.3.026,5.9,2.35" fill="none" stroke="#2e313f" stroke-linecap="round" stroke-miterlimit="10" stroke-width="2"/>
    <g>
      <line x1="22" y1="26" x2="22" y2="27" fill="none" stroke="#2e313f" stroke-linecap="round" stroke-miterlimit="10" stroke-width="2"/>
      <line x1="12" y1="26" x2="12" y2="27" fill="none" stroke="#2e313f" stroke-linecap="round" stroke-miterlimit="10" stroke-width="2"/>
    </g>
    <g>
      <path d="M14.748,30.111a3.978,3.978,0,0,0-1.725.379c-2.351,1.023-3.333,1.46-6.117.954,0,0,3.2,4.409,7.077,3.576,3.268-.7,3.094-2.622,2.959-3.208A2.2,2.2,0,0,1,14.748,30.111Z" fill="#efece8"/>
      <path d="M20.977,30.49a3.978,3.978,0,0,0-1.725-.379,2.2,2.2,0,0,1-2.194,1.7c-.135.586-.309,2.5,2.959,3.208,3.873.833,7.077-3.576,7.077-3.576C24.31,31.95,23.328,31.513,20.977,30.49Z" fill="#efece8"/>
    </g>
    <ellipse cx="17" cy="29.801" rx="2.287" ry="2.016" fill="#ea4460"/>
    <ellipse cx="17" cy="29.801" rx="2.287" ry="2.016" fill="none" stroke="#2e313f" stroke-linejoin="round" stroke-width="2"/>
    <g>
      <path d="M14.748,30.111a3.978,3.978,0,0,0-1.725.379c-2.351,1.023-3.333,1.46-6.117.954,0,0,3.2,4.409,7.077,3.576,3.268-.7,3.094-2.622,2.959-3.208A2.2,2.2,0,0,1,14.748,30.111Z" fill="none" stroke="#2e313f" stroke-linejoin="round" stroke-width="2"/>
      <path d="M20.977,30.49a3.978,3.978,0,0,0-1.725-.379,2.2,2.2,0,0,1-2.194,1.7c-.135.586-.309,2.5,2.959,3.208,3.873.833,7.077-3.576,7.077-3.576C24.31,31.95,23.328,31.513,20.977,30.49Z" fill="none" stroke="#2e313f" stroke-linejoin="round" stroke-width="2"/>
    </g>
    <path d="M29.5,18H26.138c0-.022,0-.045-.01-.066a1.471,1.471,0,0,0-.738-.925A9.8,9.8,0,0,0,21.312,16a1.5,1.5,0,0,0-1.077.461,1.518,1.518,0,0,0-.413,1.111l.02.425H14.158l.02-.424A1.494,1.494,0,0,0,12.635,16h0a9.756,9.756,0,0,0-4.018,1,1.472,1.472,0,0,0-.74.926c-.006.021-.006.044-.01.066H4.5a3.5,3.5,0,0,1-3.147-2A3.444,3.444,0,0,0,1,17.5,3.51,3.51,0,0,0,4.5,21H7.862c0-.022,0-.045.01-.066a1.472,1.472,0,0,1,.74-.926,9.756,9.756,0,0,1,4.018-1h0a1.494,1.494,0,0,1,1.543,1.572l-.02.424h5.684l-.02-.425a1.518,1.518,0,0,1,.413-1.111A1.5,1.5,0,0,1,21.312,19a9.8,9.8,0,0,1,4.078,1.006,1.471,1.471,0,0,1,.738.925c.006.021.006.044.01.066H29.5A3.51,3.51,0,0,0,33,17.5a3.444,3.444,0,0,0-.353-1.5A3.5,3.5,0,0,1,29.5,18Z" opacity="0.1"/>
    <g>
      <g>
        <path d="M24.142,23.671a1.575,1.575,0,0,1-.686-.159,5.866,5.866,0,0,0-2.172-.506A1.492,1.492,0,0,1,19.87,21.58l-.048-1a1.518,1.518,0,0,1,.413-1.111A1.5,1.5,0,0,1,21.312,19a9.8,9.8,0,0,1,4.078,1.006,1.471,1.471,0,0,1,.738.925,1.511,1.511,0,0,1-.186,1.2l-.541.847A1.483,1.483,0,0,1,24.142,23.671Z" fill="#efece8"/>
        <path d="M24.142,23.671a1.575,1.575,0,0,1-.686-.159,5.866,5.866,0,0,0-2.172-.506A1.492,1.492,0,0,1,19.87,21.58l-.048-1a1.518,1.518,0,0,1,.413-1.111A1.5,1.5,0,0,1,21.312,19a9.8,9.8,0,0,1,4.078,1.006,1.471,1.471,0,0,1,.738.925,1.511,1.511,0,0,1-.186,1.2l-.541.847A1.483,1.483,0,0,1,24.142,23.671Z" fill="#efece8"/>
      </g>
      <g>
        <path d="M9.858,23.671A1.483,1.483,0,0,1,8.6,22.985l-.541-.847a1.511,1.511,0,0,1-.186-1.2,1.472,1.472,0,0,1,.74-.926,9.756,9.756,0,0,1,4.018-1h0a1.494,1.494,0,0,1,1.543,1.572l-.048,1a1.492,1.492,0,0,1-1.416,1.426,5.866,5.866,0,0,0-2.17.506A1.575,1.575,0,0,1,9.858,23.671Z" fill="#efece8"/>
        <path d="M9.858,23.671A1.483,1.483,0,0,1,8.6,22.985l-.541-.847a1.511,1.511,0,0,1-.186-1.2,1.472,1.472,0,0,1,.74-.926,9.756,9.756,0,0,1,4.018-1h0a1.494,1.494,0,0,1,1.543,1.572l-.048,1a1.492,1.492,0,0,1-1.416,1.426,5.866,5.866,0,0,0-2.17.506A1.575,1.575,0,0,1,9.858,23.671Z" fill="#efece8"/>
      </g>
    </g>
    <path d="M29.5,14H4.5a3.5,3.5,0,0,0,0,7H7.862c0-.022,0-.045.01-.066a1.472,1.472,0,0,1,.74-.926,9.756,9.756,0,0,1,4.018-1h0a1.494,1.494,0,0,1,1.543,1.572l-.02.424h5.684l-.02-.425a1.518,1.518,0,0,1,.413-1.111A1.5,1.5,0,0,1,21.312,19a9.8,9.8,0,0,1,4.078,1.006,1.471,1.471,0,0,1,.738.925c.006.021.006.044.01.066H29.5a3.5,3.5,0,0,0,0-7Z" fill="none" stroke="#2e313f" stroke-linejoin="round" stroke-width="2"/>
    <g>
      <g>
        <path d="M24.142,23.671a1.575,1.575,0,0,1-.686-.159,5.866,5.866,0,0,0-2.172-.506A1.492,1.492,0,0,1,19.87,21.58l-.048-1a1.518,1.518,0,0,1,.413-1.111A1.5,1.5,0,0,1,21.312,19a9.8,9.8,0,0,1,4.078,1.006,1.471,1.471,0,0,1,.738.925,1.511,1.511,0,0,1-.186,1.2l-.541.847A1.483,1.483,0,0,1,24.142,23.671Z" fill="none"/>
        <path d="M24.142,23.671a1.575,1.575,0,0,1-.686-.159,5.866,5.866,0,0,0-2.172-.506A1.492,1.492,0,0,1,19.87,21.58l-.048-1a1.518,1.518,0,0,1,.413-1.111A1.5,1.5,0,0,1,21.312,19a9.8,9.8,0,0,1,4.078,1.006,1.471,1.471,0,0,1,.738.925,1.511,1.511,0,0,1-.186,1.2l-.541.847A1.483,1.483,0,0,1,24.142,23.671Z" fill="none" stroke="#2e313f" stroke-linejoin="round" stroke-width="2"/>
      </g>
      <g>
        <path d="M9.858,23.671A1.483,1.483,0,0,1,8.6,22.985l-.541-.847a1.511,1.511,0,0,1-.186-1.2,1.472,1.472,0,0,1,.74-.926,9.756,9.756,0,0,1,4.018-1h0a1.494,1.494,0,0,1,1.543,1.572l-.048,1a1.492,1.492,0,0,1-1.416,1.426,5.866,5.866,0,0,0-2.17.506A1.575,1.575,0,0,1,9.858,23.671Z" fill="none"/>
        <path d="M9.858,23.671A1.483,1.483,0,0,1,8.6,22.985l-.541-.847a1.511,1.511,0,0,1-.186-1.2,1.472,1.472,0,0,1,.74-.926,9.756,9.756,0,0,1,4.018-1h0a1.494,1.494,0,0,1,1.543,1.572l-.048,1a1.492,1.492,0,0,1-1.416,1.426,5.866,5.866,0,0,0-2.17.506A1.575,1.575,0,0,1,9.858,23.671Z" fill="none" stroke="#2e313f" stroke-linejoin="round" stroke-width="2"/>
      </g>
    </g>
    <path d="M31.028,32c-.521-3.119-1-11-1-11H27.02v7a4.248,4.248,0,0,1-2.473,3.633,9.681,9.681,0,0,0,2.547-.189s-3.2,4.409-7.077,3.576A3.7,3.7,0,0,1,17.225,33.3q-.225,0-.45,0a3.7,3.7,0,0,1-2.792,1.722c-3.873.833-7.077-3.576-7.077-3.576a9.681,9.681,0,0,0,2.547.189A4.248,4.248,0,0,1,6.98,28V21H3.974s-.481,7.881-1,11c-1,6,4,11,10.016,11h8.024C27.024,43,32.03,38,31.028,32Z" fill="#efece8"/>
    <path d="M31.028,32c-.521-3.119-1-11-1-11H27.02v7a4.248,4.248,0,0,1-2.473,3.633,9.681,9.681,0,0,0,2.547-.189s-3.2,4.409-7.077,3.576A3.7,3.7,0,0,1,17.225,33.3q-.225,0-.45,0a3.7,3.7,0,0,1-2.792,1.722c-3.873.833-7.077-3.576-7.077-3.576a9.681,9.681,0,0,0,2.547.189A4.248,4.248,0,0,1,6.98,28V21H3.974s-.481,7.881-1,11c-1,6,4,11,10.016,11h8.024C27.024,43,32.03,38,31.028,32Z" fill="none" stroke="#2e313f" stroke-linejoin="round" stroke-width="2"/>
  </g>
</svg>
