<svg xmlns="http://www.w3.org/2000/svg" viewBox="0 0 44 44"><defs><style>.cls-1{fill:#d3d3d3;}.cls-2{fill:#f7c06f;}.cls-3{fill:#e5e4e3;}.cls-4{opacity:0.2;}.cls-5{fill:#eaa74e;}.cls-6{fill:none;stroke:#2e313f;stroke-miterlimit:10;stroke-width:2px;}</style></defs><title>scroll</title><g id="Layer_2" data-name="Layer 2"><g id="Outlines"><rect class="cls-1" x="10" y="11" width="24" height="22"/><rect class="cls-2" x="1" y="6" width="10" height="4" rx="1" ry="1"/><rect class="cls-3" x="2" y="10" width="8" height="24"/><rect class="cls-4" x="10" y="11" width="3" height="22"/><rect class="cls-4" x="31" y="11" width="3" height="22"/><rect class="cls-2" x="1" y="34" width="10" height="4" rx="1" ry="1"/><path class="cls-5" d="M8,41a2,2,0,0,1-4,0c0-1.1.9-3,2-3S8,39.9,8,41Z"/><path class="cls-5" d="M4,3A2,2,0,0,1,8,3c0,1.1-.9,3-2,3S4,4.1,4,3Z"/><rect class="cls-2" x="33" y="6" width="10" height="4" rx="1" ry="1"/><rect class="cls-3" x="34" y="10" width="8" height="24"/><rect class="cls-2" x="33" y="34" width="10" height="4" rx="1" ry="1"/><path class="cls-5" d="M40,41a2,2,0,0,1-4,0c0-1.1.9-3,2-3S40,39.9,40,41Z"/><path class="cls-5" d="M36,3a2,2,0,0,1,4,0c0,1.1-.9,3-2,3S36,4.1,36,3Z"/><rect class="cls-6" x="1" y="6" width="10" height="4" rx="1" ry="1"/><rect class="cls-6" x="2" y="10" width="8" height="24"/><rect class="cls-6" x="10" y="11" width="24" height="22"/><rect class="cls-6" x="1" y="34" width="10" height="4" rx="1" ry="1"/><path class="cls-6" d="M8,41a2,2,0,0,1-4,0c0-1.1.9-3,2-3S8,39.9,8,41Z"/><path class="cls-6" d="M4,3A2,2,0,0,1,8,3c0,1.1-.9,3-2,3S4,4.1,4,3Z"/><rect class="cls-6" x="33" y="6" width="10" height="4" rx="1" ry="1"/><rect class="cls-6" x="34" y="10" width="8" height="24"/><rect class="cls-6" x="33" y="34" width="10" height="4" rx="1" ry="1"/><path class="cls-6" d="M40,41a2,2,0,0,1-4,0c0-1.1.9-3,2-3S40,39.9,40,41Z"/><path class="cls-6" d="M36,3a2,2,0,0,1,4,0c0,1.1-.9,3-2,3S36,4.1,36,3Z"/></g></g></svg>