<svg xmlns="http://www.w3.org/2000/svg" viewBox="0 0 44 32.94"><defs><style>.cls-1{fill:#ea4460;}.cls-2{opacity:0.2;}.cls-3{fill:none;stroke:#2e313f;stroke-miterlimit:10;stroke-width:2px;}</style></defs><title>sleigh</title><g id="Layer_2" data-name="Layer 2"><g id="Outlines"><path class="cls-1" d="M22.19,19.94h-10a2,2,0,0,1-1.9-1.49h0a2,2,0,0,0-1.94-1.51H6.5a2,2,0,0,0-1.94,2.48l1,4A2,2,0,0,0,7.5,24.94H37.25a2,2,0,0,0,2-1.68L42.73,2.17A1,1,0,0,0,41.64,1c-7.37.78-16.2,8-17.51,17.21A2,2,0,0,1,22.19,19.94Z"/><path class="cls-2" d="M5.56,23.42A2,2,0,0,0,7.5,24.94H37.25a2,2,0,0,0,2-1.68v-3a2,2,0,0,1-2,1.68H5.34Z"/><path class="cls-3" d="M1,26.94H1a5,5,0,0,0,5,5H44"/><line class="cls-3" x1="13.03" y1="25.22" x2="12.03" y2="32.22"/><line class="cls-3" x1="32.03" y1="25.22" x2="33.03" y2="32.22"/><path class="cls-3" d="M22.19,19.94h-10a2,2,0,0,1-1.9-1.49h0a2,2,0,0,0-1.94-1.51H6.5a2,2,0,0,0-1.94,2.48l1,4A2,2,0,0,0,7.5,24.94H37.25a2,2,0,0,0,2-1.68L42.73,2.17A1,1,0,0,0,41.64,1c-7.37.78-16.2,8-17.51,17.21A2,2,0,0,1,22.19,19.94Z"/></g></g></svg>