<svg xmlns="http://www.w3.org/2000/svg" viewBox="0 0 44 43.02"><defs><style>.cls-1{fill:#e5e4e3;}.cls-2{opacity:0.2;}.cls-3{fill:#efece8;}.cls-4{fill:#2e313f;}.cls-5,.cls-6,.cls-7{fill:none;stroke:#2e313f;}.cls-5{stroke-linejoin:round;}.cls-5,.cls-7{stroke-width:2px;}.cls-6,.cls-7{stroke-linecap:round;stroke-miterlimit:10;}</style></defs><title>snowman</title><g id="Layer_2" data-name="Layer 2"><g id="Outlines"><path class="cls-1" d="M29.73,14.64a8.8,8.8,0,0,1-14.61,0,14.66,14.66,0,1,0,14.61,0Z"/><path class="cls-2" d="M22.43,39A14.64,14.64,0,0,1,7.86,25.86a14.17,14.17,0,0,0-.08,1.47,14.65,14.65,0,1,0,29.3,0A14.17,14.17,0,0,0,37,25.86,14.66,14.66,0,0,1,22.43,39Z"/><circle class="cls-3" cx="22.43" cy="9.74" r="8.79"/><path class="cls-4" d="M23.92,24.93a1.47,1.47,0,1,1-2.93,0,1.47,1.47,0,0,1,2.93,0Z"/><path class="cls-4" d="M23.92,31.77a1.47,1.47,0,1,1-1.47-1.47A1.46,1.46,0,0,1,23.92,31.77Z"/><path class="cls-5" d="M29.79,14.68a8.78,8.78,0,0,1-14.6,0,14.65,14.65,0,1,0,14.6,0Z"/><circle class="cls-5" cx="22.49" cy="9.79" r="8.79"/><path class="cls-6" d="M18,7.67a1.83,1.83,0,0,1,3.07,0"/><path class="cls-6" d="M23.88,7.67a1.83,1.83,0,0,1,3.07,0"/><path class="cls-6" d="M19.5,12.86a5.12,5.12,0,0,0,6,0"/><circle class="cls-6" cx="22.49" cy="24.93" r="1.47"/><path class="cls-6" d="M24,31.77a1.47,1.47,0,0,1-2.93,0,1.47,1.47,0,1,1,2.93,0Z"/><line class="cls-7" x1="31.28" y1="22.71" x2="39.11" y2="18.33"/><line class="cls-7" x1="40.21" y1="14.45" x2="39.11" y2="18.33"/><line class="cls-7" x1="43" y1="19.44" x2="39.11" y2="18.33"/><line class="cls-7" x1="12.72" y1="22.71" x2="4.89" y2="18.33"/><line class="cls-7" x1="3.79" y1="14.45" x2="4.89" y2="18.33"/><line class="cls-7" x1="1" y1="19.44" x2="4.89" y2="18.33"/></g></g></svg>