<svg viewBox="0 0 40 44"  xmlns="http://www.w3.org/2000/svg"><circle cx="20" cy="20" fill="#b6def2" r="19"/><path d="m20 8.204-3.413 4.754h1.837l-4.737 5.569h2.766l-4.453 5.568h16l-4.453-5.568h2.766l-4.737-5.569h1.971z" fill="#72b795" fill-rule="evenodd"/><path d="m37.717 26.823c-2.016 1.65-4.532 2.9-9.331 3.237-5.343.372-6.312-1.584-14.218-2.031a13.376 13.376 0 0 0 -9.368 3.337 18.965 18.965 0 0 0 32.917-4.543z" fill="#f9f9f9"/><path d="m9.023 9.056a15.5 15.5 0 0 1 6.549-3.914" fill="none" stroke="#fff" stroke-linecap="round" stroke-linejoin="round" stroke-width="2"/><path d="m6.628 12.157q.309-.527.658-1.025" fill="none" stroke="#fff" stroke-linecap="round" stroke-linejoin="round" stroke-width="2"/><path d="m37 43h-34l5.354-8h23.313z" fill="#7fd6d2"/><path d="m5.008 40-2.008 3h34l-2-3z" opacity=".2"/><g fill="none" stroke="#2e313f" stroke-linejoin="round" stroke-width="2"><path d="m20 8.204-3.413 4.754h1.837l-4.737 5.569h2.766l-4.453 5.568h16l-4.453-5.568h2.766l-4.737-5.569h1.971z" stroke-linecap="round"/><path d="m20 24v4.766"/><path d="m8.367 35h23.266a19 19 0 1 0 -23.266 0z"/><path d="m8.374 35h23.254a19.086 19.086 0 0 0 6.089-8.177c-2.016 1.65-4.532 2.9-9.331 3.237-5.343.372-6.312-1.584-14.218-2.031a13.376 13.376 0 0 0 -9.368 3.337 19.22 19.22 0 0 0 3.574 3.634z"/><path d="m37 43h-34l5.354-8h23.313z"/></g></svg>