<svg xmlns="http://www.w3.org/2000/svg" viewBox="0 0 38.4 44"><defs><style>.cls-1{fill:#b6def2;}.cls-2{fill:none;stroke:#2e313f;stroke-linejoin:round;stroke-width:2px;}</style></defs><title>snowflake</title><g id="Layer_2" data-name="Layer 2"><g id="Outlines"><path id="snowflake" class="cls-1" d="M36.29,29.51l-3.67-2.14,2.54-1a2.16,2.16,0,0,0-.8-4.15,2.25,2.25,0,0,0-.81.16l-5.61,2.29L23.42,22l5.47-3.21L34.22,21a2.05,2.05,0,0,0,.81.16A2.15,2.15,0,0,0,35.85,17l-2.31-1,2.74-1.61a2.18,2.18,0,0,0,.79-2.93,2.12,2.12,0,0,0-2.94-.79l-2.87,1.68.35-2.8a2.17,2.17,0,0,0-1.85-2.41l-.27,0a2.16,2.16,0,0,0-2.13,1.89l-.76,6.07-5.3,3.1V11.19L26,7.53a2.15,2.15,0,0,0-1.31-3.85,2.14,2.14,0,0,0-1.31.45L21.3,5.73V3.15a2.14,2.14,0,1,0-4.28,0V5.73l-2-1.6a2.15,2.15,0,0,0-2.62,3.4L17,11.19v7.07l-5.48-3.2-.7-6a2.15,2.15,0,0,0-2.13-1.9l-.26,0A2.15,2.15,0,0,0,6.59,9.6l.32,2.76-2.73-1.6a2.14,2.14,0,0,0-2.94.8A2.17,2.17,0,0,0,2,14.49L4.66,16,2.3,17a2.15,2.15,0,1,0,1.6,4l5.44-2.22L14.9,22,9.58,25.12,4.11,22.85a2.07,2.07,0,0,0-.82-.16,2.12,2.12,0,0,0-2,1.35,2.16,2.16,0,0,0,1.17,2.79l2.45,1L2,29.54a2.17,2.17,0,0,0-.78,2.93,2.14,2.14,0,0,0,1.86,1.09,2.17,2.17,0,0,0,1.08-.3l2.85-1.67-.33,2.65a2.16,2.16,0,0,0,1.85,2.41h.28A2.15,2.15,0,0,0,11,34.78l.73-5.92L17,25.75v6.19l-4.67,3.65a2.16,2.16,0,0,0-.39,3,2.13,2.13,0,0,0,3,.4l2-1.6v3.46a2.14,2.14,0,1,0,4.28,0V37.39L23.35,39a2.14,2.14,0,0,0,3-.4,2.17,2.17,0,0,0-.4-3L21.3,31.94v-6.2l4.64,2.71.68,5.77a2.14,2.14,0,0,0,2.12,1.9H29a2.15,2.15,0,0,0,1.85-2.39l-.3-2.57,3.58,2.09a2.1,2.1,0,0,0,1.07.29,2.14,2.14,0,0,0,1.86-1.09A2.17,2.17,0,0,0,36.29,29.51Z"/><path id="snowflake-2" data-name="snowflake" class="cls-2" d="M36.33,29.51l-3.67-2.14,2.54-1a2.15,2.15,0,0,0,1.18-2.78,2.12,2.12,0,0,0-2-1.37,2.24,2.24,0,0,0-.8.16L28,24.63,23.46,22l5.46-3.21L34.26,21a2.05,2.05,0,0,0,.81.16,2.14,2.14,0,0,0,2-1.35A2.16,2.16,0,0,0,35.89,17l-2.31-1,2.74-1.61a2.16,2.16,0,0,0-1.08-4,2.13,2.13,0,0,0-1.07.3L31.3,12.42l.35-2.8A2.17,2.17,0,0,0,29.8,7.21l-.28,0A2.15,2.15,0,0,0,27.4,9.08l-.76,6.07-5.3,3.1V11.19L26,7.53a2.16,2.16,0,0,0,.39-3,2.13,2.13,0,0,0-3-.4l-2.05,1.6V3.15a2.14,2.14,0,1,0-4.28,0V5.73l-2-1.6a2.14,2.14,0,0,0-1.31-.45,2.15,2.15,0,0,0-1.31,3.85l4.67,3.66v7.07l-5.48-3.2-.7-6a2.15,2.15,0,0,0-2.13-1.9l-.26,0A2.16,2.16,0,0,0,6.62,9.6L7,12.36l-2.74-1.6a2.1,2.1,0,0,0-1.07-.29,2.14,2.14,0,0,0-1.86,1.09,2.18,2.18,0,0,0,.78,2.93L4.69,16,2.34,17a2.15,2.15,0,0,0-1.19,2.78,2.13,2.13,0,0,0,2,1.37,2.15,2.15,0,0,0,.8-.16l5.44-2.22L14.94,22,9.62,25.12,4.15,22.85A2.14,2.14,0,0,0,1.35,24a2.15,2.15,0,0,0,1.17,2.79l2.44,1L2.08,29.54a2.16,2.16,0,0,0,1.08,4,2.13,2.13,0,0,0,1.07-.3l2.86-1.67-.33,2.65a2.16,2.16,0,0,0,1.85,2.41h.27A2.16,2.16,0,0,0,11,34.78l.73-5.92,5.32-3.11v6.19l-4.67,3.65a2.17,2.17,0,0,0-.4,3,2.14,2.14,0,0,0,3,.4l2-1.6v3.46a2.14,2.14,0,1,0,4.28,0V37.39L23.39,39a2.12,2.12,0,0,0,1.31.45A2.15,2.15,0,0,0,26,35.59l-4.67-3.65v-6.2L26,28.45l.68,5.77a2.14,2.14,0,0,0,2.12,1.9h.28a2.15,2.15,0,0,0,1.85-2.39l-.3-2.57,3.57,2.09a2.15,2.15,0,0,0,2.15-3.73Z"/></g></g></svg>