<svg xmlns="http://www.w3.org/2000/svg" width="40" height="44" viewBox="0 0 40 44">
  <title>snow-globe-2</title>
  <g>
    <circle cx="20" cy="20" r="19" fill="#b6def2"/>
    <path d="M37.717,26.823c-2.016,1.65-4.532,2.9-9.331,3.237-5.343.372-6.312-1.584-14.218-2.031A13.376,13.376,0,0,0,4.8,31.366a18.965,18.965,0,0,0,32.917-4.543Z" fill="#f9f9f9"/>
    <path d="M9.023,9.056a15.5,15.5,0,0,1,6.549-3.914" fill="none" stroke="#fff" stroke-linecap="round" stroke-linejoin="round" stroke-width="2"/>
    <path d="M6.628,12.157q.309-.527.658-1.025" fill="none" stroke="#fff" stroke-linecap="round" stroke-linejoin="round" stroke-width="2"/>
    <polygon points="37 43 3 43 8.354 35 31.667 35 37 43" fill="#f7c06f"/>
    <polygon points="5.008 40 3 43 37 43 35 40 5.008 40" opacity="0.2"/>
    <path d="M8.367,35H31.633A19,19,0,1,0,8.367,35Z" fill="none" stroke="#2e313f" stroke-linejoin="round" stroke-width="2"/>
    <path d="M8.374,35H31.628a19.086,19.086,0,0,0,6.089-8.177c-2.016,1.65-4.532,2.9-9.331,3.237-5.343.372-6.312-1.584-14.218-2.031A13.376,13.376,0,0,0,4.8,31.366,19.22,19.22,0,0,0,8.374,35Z" fill="none" stroke="#2e313f" stroke-linejoin="round" stroke-width="2"/>
    <polygon points="37 43 3 43 8.354 35 31.667 35 37 43" fill="none" stroke="#2e313f" stroke-linejoin="round" stroke-width="2"/>
    <path d="M14.168,28.029c7.706.436,8.833,2.3,13.832,2.049V19l-8-8-8,8v9.126A11.829,11.829,0,0,1,14.168,28.029Z" fill="#b5856b"/>
    <path d="M22,29.289V22H17v6.283A35.771,35.771,0,0,1,22,29.289Z" fill="#6d533f"/>
    <line x1="20" y1="11" x2="10" y2="21" fill="none" stroke="#2e313f" stroke-linecap="round" stroke-linejoin="round" stroke-width="2"/>
    <line x1="20" y1="11" x2="30" y2="21" fill="none" stroke="#2e313f" stroke-linecap="round" stroke-linejoin="round" stroke-width="2"/>
    <path d="M14.168,28.029c7.706.436,8.833,2.3,13.832,2.049V19l-8-8-8,8v9.126A11.829,11.829,0,0,1,14.168,28.029Z" fill="none" stroke="#2e313f" stroke-linejoin="round" stroke-width="2"/>
    <path d="M22,29.289V22H17v6.283A35.771,35.771,0,0,1,22,29.289Z" fill="none" stroke="#2e313f" stroke-linejoin="round" stroke-width="2"/>
    <polygon points="27 18 24 15 24 11 27 11 27 18" fill="#6d533f"/>
    <polygon points="27 18 24 15 24 11 27 11 27 18" fill="none" stroke="#2e313f" stroke-linecap="round" stroke-linejoin="round" stroke-width="2"/>
  </g>
</svg>
