<svg xmlns="http://www.w3.org/2000/svg" viewBox="0 0 44 41"><defs><style>.cls-1{fill:#f7c06f;}.cls-2{opacity:0.2;}.cls-3{fill:none;stroke:#2e313f;stroke-linejoin:round;stroke-width:2px;}</style></defs><title>star-2</title><g id="Layer_2" data-name="Layer 2"><g id="Outlines"><path class="cls-1" d="M43,16,28.79,13.48,22,1.1,15.14,13.48,1,16l10,10.16L9,40.1,22,34l13,6.1L33,26.16ZM27.22,29.5l-4.94-2.36a.77.77,0,0,0-.64,0L16.71,29.5l.72-5.36a.74.74,0,0,0-.2-.62l-3.77-3.9,5.38-1a.75.75,0,0,0,.52-.38L22,13.5l2.6,4.77a.75.75,0,0,0,.52.38l5.38,1-3.77,3.9a.74.74,0,0,0-.2.62Z"/><g class="cls-2"><polygon points="21.96 31 9.43 36.89 8.98 40.1 21.96 34 34.94 40.1 34.49 36.89 21.96 31"/></g><g id="star-2"><path class="cls-3" d="M33.05,26.06,35,40,22,33.9,9,40,11,26.06,1,15.9l14.18-2.52L22,1l6.83,12.38L43,15.9Z"/><path class="cls-3" d="M26.73,23.42a.74.74,0,0,0-.2.62l.73,5.36L22.32,27a.77.77,0,0,0-.64,0L16.74,29.4,17.47,24a.74.74,0,0,0-.2-.62l-3.77-3.9,5.38-1a.75.75,0,0,0,.52-.38L22,13.4l2.6,4.77a.75.75,0,0,0,.52.38l5.38,1Z"/></g></g></g></svg>