<svg xmlns="http://www.w3.org/2000/svg" viewBox="0 0 44 41"><defs><style>.cls-1{fill:#f7c06f;}.cls-2{fill:#eaa74e;}.cls-3,.cls-4{fill:none;stroke:#2e313f;stroke-linejoin:round;}.cls-3{stroke-width:2px;}</style></defs><title>star-3</title><g id="Layer_2" data-name="Layer 2"><g id="Outlines"><g id="star-2"><path class="cls-1" d="M33.05,26.06,35,40,22,33.9,9,40,11,26.06,1,15.9l14.18-2.52L22,1l6.83,12.38L43,15.9Z"/></g><polygon class="cls-2" points="22 22.5 28.83 13.38 22 1 22 22.5"/><polygon class="cls-2" points="22 22.5 43 15.9 33.05 26.06 22 22.5"/><polyline class="cls-2" points="22 22.5 1 15.9 15.18 13.38 22 22.5"/><polygon class="cls-2" points="22 22.5 9.02 40 10.95 26.06 22 22.5"/><polygon class="cls-2" points="22 22.5 34.98 40 22 33.9 22 22.5"/><g id="star-2-2" data-name="star-2"><path class="cls-3" d="M33.05,26.06,35,40,22,33.9,9,40,11,26.06,1,15.9l14.18-2.52L22,1l6.83,12.38L43,15.9Z"/></g><line class="cls-4" x1="28.83" y1="13.38" x2="22" y2="22.5"/><line class="cls-4" x1="33.05" y1="26.06" x2="22" y2="22.5"/><line class="cls-4" x1="22" y1="33.9" x2="22" y2="22.5"/><line class="cls-4" x1="10.95" y1="26.06" x2="22" y2="22.5"/><line class="cls-4" x1="15.18" y1="13.38" x2="22" y2="22.5"/><line class="cls-4" x1="1" y1="15.9" x2="22" y2="22.5"/><line class="cls-4" x1="22" y1="1" x2="22" y2="22.5"/><line class="cls-4" x1="43" y1="15.9" x2="22" y2="22.5"/><line class="cls-4" x1="34.98" y1="40" x2="22" y2="22.5"/><line class="cls-4" x1="9.02" y1="40" x2="22" y2="22.5"/></g></g></svg>