<svg xmlns="http://www.w3.org/2000/svg" viewBox="0 0 38.37 44"><defs><style>.cls-1{fill:#f7c06f;}.cls-2{fill:none;stroke:#2e313f;stroke-linejoin:round;stroke-width:2px;}</style></defs><title>star-4</title><g id="Layer_2" data-name="Layer 2"><g id="Outlines"><polygon class="cls-1" points="10.43 16.17 13.12 11.5 1 11.5 10.43 27.83 15.82 27.83 9.08 16.17 10.43 16.17"/><polygon class="cls-1" points="18.51 11.5 15.82 16.17 29.29 16.17 28.62 17.33 31.31 22 37.37 11.5 18.51 11.5"/><polygon class="cls-1" points="25.92 22 19.19 33.67 18.51 32.5 13.12 32.5 19.19 43 28.62 26.67 25.92 22"/><polygon class="cls-1" points="22.55 27.83 9.08 27.83 9.76 26.67 7.06 22 1 32.5 19.86 32.5 22.55 27.83"/><polygon class="cls-1" points="27.94 27.83 25.25 32.5 37.37 32.5 27.94 16.17 22.55 16.17 29.29 27.83 27.94 27.83"/><polygon class="cls-1" points="19.86 11.5 25.25 11.5 19.19 1 9.76 17.33 12.45 22 19.19 10.33 19.86 11.5"/><polygon class="cls-2" points="10.43 16.17 13.12 11.5 1 11.5 10.43 27.83 15.82 27.83 9.08 16.17 10.43 16.17"/><polygon class="cls-2" points="18.51 11.5 15.82 16.17 29.29 16.17 28.62 17.33 31.31 22 37.37 11.5 18.51 11.5"/><polygon class="cls-2" points="25.92 22 19.19 33.67 18.51 32.5 13.12 32.5 19.19 43 28.62 26.67 25.92 22"/><polygon class="cls-2" points="22.55 27.83 9.08 27.83 9.76 26.67 7.06 22 1 32.5 19.86 32.5 22.55 27.83"/><polygon class="cls-2" points="27.94 27.83 25.25 32.5 37.37 32.5 27.94 16.17 22.55 16.17 29.29 27.83 27.94 27.83"/><polygon class="cls-2" points="19.86 11.5 25.25 11.5 19.19 1 9.76 17.33 12.45 22 19.19 10.33 19.86 11.5"/></g></g></svg>