<svg xmlns="http://www.w3.org/2000/svg" viewBox="0 0 30 44"><defs><style>.cls-1{fill:#7fd6d2;}.cls-2{opacity:0.2;}.cls-3{fill:#efece8;}.cls-4{fill:#bde5e1;}.cls-5{fill:none;stroke:#2e313f;stroke-miterlimit:10;stroke-width:2px;}</style></defs><title>stocking</title><g id="Layer_2" data-name="Layer 2"><g id="Outlines"><path class="cls-1" d="M3,9s.19,10.51.14,13.94c0,3-1,10.8,3.1,12.77,3.42,1.64,11.54,5.94,13.59,6.8a6.64,6.64,0,0,0,9-4.61c.84-4.09-.92-5.77-3.24-7.59s-4.87-3.14-5.08-8.69S20.36,9,20.36,9Z"/><g class="cls-2"><path d="M28.75,34.9a6.64,6.64,0,0,1-9,4.61c-2.05-.86-10.17-5.16-13.59-6.8C3.81,31.56,3.14,28.44,3,25.43,2.88,29,3,34.16,6.2,35.71c3.42,1.64,11.54,5.94,13.59,6.8a6.64,6.64,0,0,0,9-4.61,7.71,7.71,0,0,0,.05-3.34C28.78,34.67,28.77,34.78,28.75,34.9Z"/></g><rect class="cls-3" x="0.96" y="1" width="22" height="8" rx="2" ry="2"/><path class="cls-4" d="M20.32,13H3c0,2.51.08,5.7.08,8h17.3C20.32,18.29,20.31,15.32,20.32,13Z"/><path class="cls-5" d="M3,9s.19,10.51.14,13.94c0,3-1,10.8,3.1,12.77,3.42,1.64,11.54,5.94,13.59,6.8a6.63,6.63,0,0,0,9-4.61c.85-4.09-.91-5.77-3.24-7.59s-4.86-3.14-5.07-8.69S20.4,9,20.4,9Z"/><rect class="cls-5" x="1" y="1" width="22" height="8" rx="2" ry="2"/><path class="cls-5" d="M20.36,13H3.07c0,2.51.07,5.7.08,8h17.3C20.36,18.29,20.35,15.32,20.36,13Z"/></g></g></svg>