<svg xmlns="http://www.w3.org/2000/svg" width="44" height="26.074" viewBox="0 0 44 26.074">
  <title>sufganiyot</title>
  <g>
    <path d="M22,1C10.336,1,1,6.829,1,15v1.167c0,3.85,2.332,7,9.332,8.168s18.588.794,23.333,0c7-1.165,9.334-4.314,9.335-8.164V15C43,6.837,33.669,1,22,1Z" fill="#f7c06f"/>
    <path d="M33.665,21.335c-4.745.79-16.333,1.164-23.333,0-6.392-1.066-8.885-3.788-9.271-7.184C1.038,14.429,1,14.708,1,15v1.167c0,3.85,2.332,7,9.332,8.168s18.588.794,23.333,0c7-1.165,9.334-4.314,9.335-8.164V15c0-.291-.038-.571-.061-.855C42.555,17.547,40.061,20.271,33.665,21.335Z" opacity="0.2"/>
    <path d="M43,15C43,6.837,33.669,1,22,1S1,6.829,1,15v1.125A3.009,3.009,0,0,0,3.155,17C6.3,17,6.3,13,9.443,13s3.142,4,6.284,4,3.144-4,6.286-4,3.142,4,6.284,4,3.142-4,6.284-4,3.138,4,6.278,4A3.009,3.009,0,0,0,43,16.142Z" fill="#f9f9f9"/>
    <path d="M22,1C10.336,1,1,6.829,1,15v1.167c0,3.85,2.332,7,9.332,8.168s18.588.794,23.333,0c7-1.165,9.334-4.314,9.335-8.164V15C43,6.837,33.669,1,22,1Z" fill="none" stroke="#2e313f" stroke-linejoin="round" stroke-width="2"/>
    <path d="M43,15C43,6.837,33.669,1,22,1S1,6.829,1,15v1.125A3.009,3.009,0,0,0,3.155,17C6.3,17,6.3,13,9.443,13s3.142,4,6.284,4,3.144-4,6.286-4,3.142,4,6.284,4,3.142-4,6.284-4,3.138,4,6.278,4A3.009,3.009,0,0,0,43,16.142Z" fill="none" stroke="#2e313f" stroke-linejoin="round" stroke-width="2"/>
    <ellipse cx="22.002" cy="6" rx="4.5" ry="2" fill="#ea4460"/>
    <ellipse cx="22.002" cy="6" rx="4.5" ry="2" fill="none" stroke="#2e313f" stroke-linejoin="round" stroke-width="2"/>
  </g>
</svg>
