<svg xmlns="http://www.w3.org/2000/svg" viewBox="0 0 44 28"><defs><style>.cls-1{fill:#9b7e6b;}.cls-2{opacity:0.2;}.cls-3{fill:#efece8;}.cls-4{fill:#aa8c77;}.cls-5,.cls-6{fill:none;stroke:#2e313f;stroke-linejoin:round;stroke-width:2px;}.cls-5{stroke-linecap:round;}</style></defs><title>turkey</title><g id="Layer_2" data-name="Layer 2"><g id="Outlines"><path class="cls-1" d="M13.14,27h18s6-.29,6.93-5.25C39.42,14.59,31.53,4.13,21.4,2.49S3.28,5.27,2.92,15,6.88,27,13.14,27Z"/><path class="cls-2" d="M38.07,18.75c-.94,5-6.93,5.25-6.93,5.25h-18C7.48,24,3.43,22.13,3,14.57c0,.15,0,.28,0,.43-.35,9.73,4,12,10.22,12h18s6-.29,6.93-5.25a9.8,9.8,0,0,0,0-3.2C38.08,18.62,38.08,18.68,38.07,18.75Z"/><path class="cls-3" d="M40.52,3.48A2.17,2.17,0,1,0,36.85,4.7a2.13,2.13,0,0,0,.33.28L35.07,7.09A1.39,1.39,0,0,0,36,8a1.49,1.49,0,0,1,.93.94h0L39,6.81a1.81,1.81,0,0,0,.28.34,2.17,2.17,0,1,0,1.22-3.67Z"/><path class="cls-4" d="M24.59,19.41h0A5.4,5.4,0,0,0,32.65,19l3-3.81a4.85,4.85,0,0,0,.43-5.41l.8-.8h0A1.49,1.49,0,0,0,36,8a1.39,1.39,0,0,1-.91-.9l-.8.8a4.85,4.85,0,0,0-5.41.43l-3.81,3A5.4,5.4,0,0,0,24.59,19.41Z"/><line class="cls-5" x1="1" y1="27" x2="43" y2="27"/><path class="cls-6" d="M40.52,3.48A2.17,2.17,0,1,0,36.85,4.7a2.13,2.13,0,0,0,.33.28L35.07,7.09A1.39,1.39,0,0,0,36,8a1.49,1.49,0,0,1,.93.94h0L39,6.81a1.81,1.81,0,0,0,.28.34,2.17,2.17,0,1,0,1.22-3.67Z"/><path class="cls-6" d="M36.46,13.71a4.65,4.65,0,0,1-.78,1.43l-3,3.81a5.4,5.4,0,0,1-8.06.46h0a5.4,5.4,0,0,1,.46-8.06l3.81-3a4.83,4.83,0,0,1,2.48-1A20.41,20.41,0,0,0,21.4,2.49C11.28.84,3.28,5.27,2.92,15s4,12,10.22,12h18s6-.29,6.93-5.25A12.76,12.76,0,0,0,36.46,13.71Z"/><path class="cls-6" d="M24.59,19.41h0A5.4,5.4,0,0,0,32.65,19l3-3.81a4.85,4.85,0,0,0,.43-5.41l.8-.8h0A1.49,1.49,0,0,0,36,8a1.39,1.39,0,0,1-.91-.9l-.8.8a4.85,4.85,0,0,0-5.41.43l-3.81,3A5.4,5.4,0,0,0,24.59,19.41Z"/></g></g></svg>