<svg xmlns="http://www.w3.org/2000/svg" viewBox="0 0 40.43 44"><defs><style>.cls-1{fill:#efece8;}.cls-2{opacity:0.2;}.cls-3{fill:#5da9d8;}.cls-4{fill:#e5e4e3;}.cls-5,.cls-6{fill:none;stroke:#2e313f;stroke-linejoin:round;stroke-width:2px;}.cls-6{stroke-linecap:round;}</style></defs><title>water-jug</title><g id="Layer_2" data-name="Layer 2"><g id="Outlines"><path class="cls-1" d="M5.5,27.7C5.06,32.11,7,35.34,9.73,37.84A4.69,4.69,0,0,0,12.89,39h11.7a4.73,4.73,0,0,0,3.09-1.1,11.89,11.89,0,0,0,4.26-11.1c-.69-4.23-2.79-6.51-4.72-11.28-1.63-4-.95-10.41.94-14.52H4.5c5.66,2.05,9.5,8.22,6.66,13.55C9.53,17.61,6,23,5.5,27.7Z"/><g class="cls-2"><path d="M27.68,34.9A4.73,4.73,0,0,1,24.59,36H12.89a4.69,4.69,0,0,1-3.16-1.16,12,12,0,0,1-4.19-7.48c0,.12,0,.23,0,.34C5.06,32.11,7,35.34,9.73,37.84A4.69,4.69,0,0,0,12.89,39h11.7a4.73,4.73,0,0,0,3.09-1.1A11.89,11.89,0,0,0,32,27.27,12.38,12.38,0,0,1,27.68,34.9Z"/></g><path class="cls-3" d="M5,10.34a2,2,0,0,1-2,1.95,2,2,0,0,1-2-1.95C1,8.39,3,5.79,3,5.79S5,8.39,5,10.34Z"/><polygon class="cls-4" points="29.5 43 7.5 43 10.5 39 26.5 39 29.5 43"/><path class="cls-5" d="M5.5,27.7C5.06,32.11,7,35.34,9.73,37.84A4.69,4.69,0,0,0,12.89,39h11.7a4.73,4.73,0,0,0,3.09-1.1,11.89,11.89,0,0,0,4.26-11.1c-.69-4.23-2.79-6.51-4.72-11.28-1.63-4-.95-10.41.94-14.52H4.5c5.66,2.05,9.5,8.22,6.66,13.55C9.53,17.61,6,23,5.5,27.7Z"/><path class="cls-6" d="M26.5,13s2.43-4.38,6.57-4.38c4.35,0,7.37,3.26,6,8-1.23,4.37-4.72,5.31-6.33,8.48s.38,5.59,2.93,5.59c0,0,3.2,0,2.78-3.67"/><path class="cls-6" d="M5,10.34a2,2,0,0,1-2,1.95,2,2,0,0,1-2-1.95C1,8.39,3,5.79,3,5.79S5,8.39,5,10.34Z"/><polygon class="cls-6" points="29.5 43 7.5 43 10.5 39 26.5 39 29.5 43"/></g></g></svg>