<svg xmlns="http://www.w3.org/2000/svg" viewBox="0 0 42 44"><defs><style>.cls-1{fill:#b5856b;}.cls-2{fill:#b6def2;}.cls-3{fill:#ea4460;}.cls-4{fill:#e5e4e3;}.cls-5{fill:none;stroke:#2e313f;stroke-linejoin:round;stroke-width:2px;}</style></defs><title>wintery-house</title><g id="Layer_2" data-name="Layer 2"><g id="Outlines"><rect class="cls-1" x="29.5" y="5" width="7" height="13"/><polygon class="cls-1" points="21 6 5 22.84 5 43 37 43 37 22.84 21 6"/><path class="cls-2" d="M40.3,22.31l-17.44-18a2.68,2.68,0,0,0-3.72,0L1.7,22.31a2.46,2.46,0,0,0,.1,3.54,2.62,2.62,0,0,0,3.63-.1L7.15,24v.57a2.06,2.06,0,0,0,4.11,0V19.72l6.1-6.31v5.11a2.05,2.05,0,0,0,4.1,0V10.13L35.18,24.31V29a2.05,2.05,0,0,0,4.1,0V26.38a2.51,2.51,0,0,0,.92-.53A2.46,2.46,0,0,0,40.3,22.31Z"/><path class="cls-2" d="M28.5,1V5h6V6.15a1.51,1.51,0,0,0,3,0V1Z"/><rect class="cls-3" x="23.5" y="28" width="7" height="15"/><rect class="cls-4" x="9.5" y="30" width="9" height="7"/><path class="cls-5" d="M36,7.5a1.43,1.43,0,0,1-1.5-1.35V5h-5v6.14L36.13,18h.37V7.42A1.64,1.64,0,0,1,36,7.5Z"/><polyline class="cls-5" points="5 26 5 43 37 43 37 31"/><path class="cls-5" d="M40.3,22.31l-17.44-18a2.68,2.68,0,0,0-3.72,0L1.7,22.31a2.46,2.46,0,0,0,.1,3.54,2.62,2.62,0,0,0,3.63-.1L7.15,24v.57a2.06,2.06,0,0,0,4.11,0V19.72l6.1-6.31v5.11a2.05,2.05,0,0,0,4.1,0V10.13L35.18,24.31V29a2.05,2.05,0,0,0,4.1,0V26.38a2.51,2.51,0,0,0,.92-.53A2.46,2.46,0,0,0,40.3,22.31Z"/><path class="cls-5" d="M28.5,1V5h6V6.15a1.51,1.51,0,0,0,3,0V1Z"/><rect class="cls-5" x="23.5" y="28" width="7" height="15"/><rect class="cls-5" x="9.5" y="30" width="9" height="7"/></g></g></svg>